<?xml version="1.0" encoding="UTF-8" standalone="no"?>
<!-- Created with Inkscape (http://www.inkscape.org/) -->

<svg
   width="512"
   height="512"
   viewBox="0 0 135.46666 135.46667"
   version="1.1"
   id="svg5"
   inkscape:export-filename="../b273c360/icon.png"
   inkscape:export-xdpi="96.000008"
   inkscape:export-ydpi="96.000008"
   inkscape:version="1.2.1 (ef4d3fba62, 2022-07-19, custom)"
   sodipodi:docname="icon.svg"
   xmlns:inkscape="http://www.inkscape.org/namespaces/inkscape"
   xmlns:sodipodi="http://sodipodi.sourceforge.net/DTD/sodipodi-0.dtd"
   xmlns:xlink="http://www.w3.org/1999/xlink"
   xmlns="http://www.w3.org/2000/svg"
   xmlns:svg="http://www.w3.org/2000/svg">
  <sodipodi:namedview
     id="namedview7"
     pagecolor="#ffffff"
     bordercolor="#666666"
     borderopacity="1.0"
     inkscape:pageshadow="2"
     inkscape:pageopacity="0.0"
     inkscape:pagecheckerboard="0"
     inkscape:document-units="mm"
     showgrid="false"
     units="px"
     width="512px"
     inkscape:zoom="0.41053452"
     inkscape:cx="21.922639"
     inkscape:cy="252.11035"
     inkscape:window-width="1920"
     inkscape:window-height="962"
     inkscape:window-x="0"
     inkscape:window-y="0"
     inkscape:window-maximized="1"
     inkscape:current-layer="layer1"
     inkscape:showpageshadow="2"
     inkscape:deskcolor="#d1d1d1" />
  <defs
     id="defs2">
    <rect
       x="-56.349014"
       y="-195.93945"
       width="268.92228"
       height="223.04737"
       id="rect4299" />
    <rect
       x="-56.349014"
       y="-195.93945"
       width="268.92228"
       height="223.04737"
       id="rect17695" />
    <linearGradient
       id="SvgjsLinearGradient3676">
      <stop
         id="SvgjsStop3677"
         stop-color="#2d388a"
         offset="0" />
      <stop
         id="SvgjsStop3678"
         stop-color="#00aeef"
         offset="1" />
    </linearGradient>
    <linearGradient
       inkscape:collect="always"
       xlink:href="#SvgjsLinearGradient3676"
       id="linearGradient930"
       gradientTransform="scale(0.96089681,1.0406945)"
       x1="0.083255558"
       y1="2.0178833"
       x2="18.128898"
       y2="2.0178833"
       gradientUnits="userSpaceOnUse" />
    <linearGradient
       inkscape:collect="always"
       xlink:href="#SvgjsLinearGradient3676"
       id="linearGradient932"
       gradientTransform="scale(0.96089681,1.0406945)"
       x1="0.083255558"
       y1="2.0178833"
       x2="18.128898"
       y2="2.0178833"
       gradientUnits="userSpaceOnUse" />
  </defs>
  <g
     inkscape:label="Layer 1"
     inkscape:groupmode="layer"
     id="layer1">
    <rect
       style="display:none;fill:#111111;fill-opacity:1;stroke:#48466d;stroke-width:0.993142"
       id="rect2408"
       width="134.47353"
       height="134.47353"
       x="0.49657118"
       y="0.49657118" />
    <g
       id="SvgjsG3670"
       featurekey="monogramFeature-0"
       transform="matrix(5.806436,0,0,5.806436,16.927018,1.0173837)"
       fill="url(#SvgjsLinearGradient3676)"
       style="fill:url(#linearGradient932)">
      <path
         d="M 2.3,20.88 C 2.2,20.88 2.08,20.84 1.96,20.8 L 1.58,20.66 C 1.4,20.62 1.22,20.5 1.04,20.3 L 0.64,19.92 C 0.34,19.64 0.3,19.58 0.18,19.2 0.12,18.98 0.08,18.46 0.08,18 c 0,-0.4 0.02,-0.72 0.08,-0.76 0.04,-0.04 0.08,-0.42 0.1,-0.88 0,-0.1 0.02,-0.24 0.04,-0.32 0.02,-0.08 0.02,-0.2 0.02,-0.28 0.02,-0.08 0.02,-0.16 0.04,-0.18 0.02,-0.02 0.02,-0.06 0.02,-0.12 v -0.12 c 0,-0.22 0.08,-0.8 0.14,-0.96 0.02,-0.06 0.06,-0.36 0.1,-0.66 0.04,-0.32 0.1,-0.6 0.12,-0.64 0.04,-0.04 0.06,-0.16 0.08,-0.28 0,-0.1 0.02,-0.22 0.04,-0.24 C 0.88,12.52 0.9,12.4 0.9,12.3 L 1,11.84 c 0.04,-0.12 0.06,-0.22 0.06,-0.28 v -0.02 c 0,-0.04 0,-0.14 0.04,-0.22 L 1.14,11.08 V 11.04 L 1.26,10.38 C 1.3,10.24 1.32,10.08 1.34,10.06 1.38,9.98 1.66,8.4 1.66,8.22 V 8.2 C 1.66,8.16 1.7,8.1 1.74,8.06 1.78,8.02 1.8,7.98 1.8,7.96 L 1.78,7.86 C 1.78,7.66 1.84,7.22 1.88,7.2 1.9,7.18 1.92,7.12 1.92,7.06 V 7 C 1.92,6.92 1.94,6.84 1.96,6.76 2,6.66 2.04,6.46 2.06,6.3 L 2.18,5.66 2.32,4.84 C 2.34,4.6 2.4,4.32 2.4,4.22 L 2.42,4.02 2.4,3.7 C 2.4,3.58 2.42,3.5 2.48,3.46 2.52,3.4 2.54,3.36 2.6,3.36 l 0.18,0.08 c 0.12,0.06 0.28,0.2 0.38,0.3 0.1,0.12 0.28,0.24 0.38,0.28 0.14,0.04 0.2,0.1 0.26,0.24 0.02,0.1 0.12,0.22 0.2,0.28 0.14,0.08 0.16,0.12 0.18,0.52 0,0.3 -0.06,0.72 -0.2,1.46 L 3.56,8.56 C 3.46,9.04 3.4,9.48 3.4,9.6 L 3.42,9.7 V 9.72 H 3.4 c -0.08,0 -0.32,0.92 -0.46,1.7 -0.02,0.16 -0.12,0.62 -0.2,1.02 -0.08,0.38 -0.2,0.96 -0.24,1.24 -0.04,0.3 -0.1,0.64 -0.14,0.74 -0.04,0.1 -0.04,0.28 -0.04,0.4 v 0.1 c 0,0.06 0,0.1 -0.02,0.1 -0.02,0 -0.02,0.02 -0.02,0.04 0,0.04 0,0.08 0.02,0.12 l 0.04,0.1 -0.02,0.02 H 2.26 c -0.04,0 -0.06,0.02 -0.06,0.1 l 0.06,0.3 c 0,0.02 0,0.02 -0.02,0.02 L 2.2,15.68 c -0.02,0 -0.04,0.1 -0.08,0.28 L 2,16.86 1.96,17.38 2,17.68 1.92,17.62 c -0.02,0 -0.02,0.02 -0.04,0.1 0,0.06 0,0.14 0.02,0.16 h 0.02 v -0.04 c 0,-0.04 0.04,-0.08 0.08,-0.08 0.04,0 0.08,0.04 0.1,0.08 l 0.02,0.04 0.02,-0.02 c 0.02,-0.02 0.02,-0.1 0.02,-0.18 v -0.04 c 0,-0.04 0.02,-0.08 0.06,-0.08 0.04,0 0.1,-0.06 0.12,-0.12 0.02,-0.06 0.08,-0.18 0.14,-0.26 0.04,-0.08 0.06,-0.2 0.06,-0.26 V 16.9 c 0,-0.06 0.04,-0.08 0.1,-0.08 0.06,0 0.08,-0.02 0.08,-0.08 v -0.08 c 0,-0.08 0.02,-0.16 0.06,-0.18 0.04,-0.02 0.08,-0.12 0.1,-0.2 0,-0.1 0.04,-0.18 0.1,-0.18 0.04,0 0.06,-0.02 0.06,-0.06 L 3,15.9 c 0,-0.02 0.02,-0.04 0.04,-0.04 0.1,0 0.28,-0.3 0.28,-0.42 v -0.06 c 0,-0.06 0.04,-0.14 0.08,-0.18 0.08,-0.06 0.14,-0.18 0.16,-0.24 0,-0.08 0.06,-0.18 0.1,-0.26 C 3.72,14.64 3.8,14.48 3.84,14.34 3.88,14.2 3.98,14.02 4.04,13.92 4.1,13.84 4.16,13.74 4.16,13.7 v -0.04 c 0,-0.04 0.02,-0.08 0.06,-0.12 0.04,-0.04 0.06,-0.1 0.06,-0.14 0,-0.04 0.04,-0.12 0.08,-0.2 0.04,-0.06 0.12,-0.22 0.16,-0.36 0.04,-0.14 0.08,-0.26 0.1,-0.26 0.02,0 0.08,-0.1 0.12,-0.22 l 0.14,-0.28 c 0.04,-0.04 0.06,-0.12 0.08,-0.18 0,-0.06 0.04,-0.1 0.06,-0.1 0.04,0 0.06,-0.02 0.06,-0.06 v -0.02 c 0,-0.16 0.28,-0.74 0.38,-0.78 C 5.5,10.92 5.54,10.86 5.54,10.8 5.54,10.66 5.88,9.82 6,9.68 6.02,9.64 6.04,9.58 6.04,9.54 6.04,9.52 6.08,9.5 6.12,9.5 6.18,9.5 6.2,9.46 6.2,9.4 L 6.18,9.26 C 6.18,9.22 6.2,9.18 6.24,9.16 6.28,9.14 6.32,9.04 6.34,8.94 6.34,8.86 6.38,8.78 6.4,8.78 6.44,8.78 6.44,8.74 6.44,8.7 6.44,8.66 6.48,8.56 6.54,8.5 6.58,8.44 6.62,8.38 6.62,8.34 6.62,8.3 6.68,8.18 6.74,8.06 6.82,7.94 6.98,7.64 7.08,7.38 7.2,7.12 7.32,6.88 7.34,6.88 L 7.46,6.56 C 7.52,6.4 7.62,6.2 7.68,6.14 7.74,6.06 7.78,5.98 7.78,5.94 7.78,5.9 7.8,5.86 7.86,5.86 7.9,5.86 7.94,5.82 7.96,5.8 L 7.98,5.76 7.96,5.74 7.9,5.78 C 7.88,5.78 7.86,5.76 7.86,5.72 7.86,5.7 7.88,5.64 7.92,5.6 7.96,5.56 8,5.48 8.04,5.42 8.06,5.34 8.16,5.14 8.26,4.94 8.34,4.74 8.44,4.56 8.48,4.54 8.52,4.5 8.54,4.44 8.54,4.4 8.54,4.34 8.66,4.08 8.8,3.78 8.96,3.5 9.06,3.2 9.06,3.14 V 3.12 C 9.06,3.04 9.14,3 9.24,3 c 0.24,0 0.62,0.16 0.8,0.38 0.04,0.06 0.1,0.1 0.14,0.1 0.02,0 0.14,0.08 0.24,0.18 0.08,0.08 0.14,0.16 0.14,0.18 0,0.02 0.04,0.06 0.1,0.1 0.06,0.04 0.12,0.1 0.12,0.14 V 4.1 c 0,0.04 0.02,0.1 0.06,0.1 l 0.04,0.04 -0.04,0.12 -0.02,0.18 0.02,0.38 c 0,0.1 0,0.16 -0.02,0.18 -0.04,0 -0.06,0.06 -0.06,0.1 0,0.06 -0.02,0.16 -0.06,0.22 l -0.02,0.1 0.02,0.08 c 0,0.04 -0.02,0.08 -0.04,0.12 -0.04,0.06 -0.08,0.2 -0.1,0.3 0,0.12 -0.02,0.2 -0.06,0.2 -0.02,0 -0.02,0.02 -0.02,0.06 v 0.04 c 0,0.06 -0.02,0.14 -0.04,0.16 -0.08,0.1 -0.24,0.84 -0.24,1 l 0.02,0.12 c 0,0.08 -0.02,0.14 -0.06,0.14 h -0.02 c -0.02,0 -0.06,0.1 -0.1,0.22 l -0.02,0.18 c 0,0.06 0,0.1 0.04,0.14 l 0.02,0.06 -0.06,-0.02 c -0.06,0 -0.08,0.04 -0.1,0.08 0,0.06 -0.04,0.2 -0.08,0.3 L 9.8,8.86 c 0,0.02 0.02,0.02 0.04,0.02 L 9.92,8.86 9.86,8.94 C 9.8,8.98 9.78,9.04 9.78,9.08 L 9.8,9.18 9.78,9.2 C 9.74,9.2 9.72,9.24 9.7,9.3 9.7,9.36 9.64,9.68 9.56,10.02 9.52,10.3 9.48,10.58 9.48,10.7 L 9.5,10.82 H 9.46 c -0.02,0 -0.06,0.1 -0.08,0.24 L 9.3,11.48 C 9.24,11.66 9.14,12.24 9.14,12.4 v 0.04 l -0.04,0.12 -0.06,0.3 c 0,0.12 -0.06,0.54 -0.1,0.92 -0.04,0.38 -0.08,0.78 -0.08,0.92 0,0.12 0,0.28 -0.02,0.32 L 8.82,15.2 c 0,0.08 0.02,0.14 0.06,0.14 h 0.04 c 0.04,0 0.04,0 0.04,0.02 0,0.04 -0.02,0.08 -0.08,0.12 -0.06,0.04 -0.08,0.08 -0.08,0.14 l 0.02,0.2 0.04,0.22 -0.02,0.08 C 8.8,16.18 8.8,16.24 8.8,16.3 c 0,0.08 0.02,0.16 0.08,0.18 0.04,0.02 0.06,0.04 0.06,0.06 L 8.9,16.56 8.86,16.64 v 0.34 c 0,0.08 0.02,0.16 0.06,0.24 0.04,0.06 0.04,0.1 0.04,0.12 0,0.04 0,0.06 -0.02,0.06 -0.04,0.02 -0.06,0.04 -0.06,0.06 0,0.02 0.06,0.06 0.14,0.06 0.04,0 0.08,-0.02 0.08,-0.04 L 9.08,17.44 c 0,-0.02 0.04,-0.06 0.1,-0.08 0.1,-0.04 0.18,-0.16 0.18,-0.28 l -0.02,-0.1 c 0,-0.1 0.1,-0.32 0.18,-0.32 0.1,0 0.32,-0.44 0.34,-0.66 0,-0.12 0.04,-0.2 0.1,-0.2 0.02,0 0.04,-0.02 0.04,-0.04 v -0.04 c 0,-0.04 0.02,-0.12 0.06,-0.18 0.06,-0.06 0.08,-0.16 0.08,-0.2 0,-0.04 0.02,-0.08 0.04,-0.08 0.04,0 0.06,-0.04 0.08,-0.1 0.02,-0.12 0.1,-0.32 0.3,-0.72 0.18,-0.38 0.24,-0.5 0.28,-0.64 0.02,-0.08 0.06,-0.14 0.1,-0.18 0.02,-0.02 0.04,-0.1 0.04,-0.18 v -0.06 c 0,-0.06 0,-0.08 0.02,-0.08 0.04,0 0.06,-0.04 0.06,-0.08 v -0.04 c 0,-0.04 0.02,-0.06 0.06,-0.06 0.06,0 0.08,-0.02 0.08,-0.04 v -0.02 c 0,-0.14 0.16,-0.66 0.22,-0.66 0.02,0 0.02,-0.02 0.02,-0.04 v -0.04 c 0,-0.06 0.02,-0.1 0.04,-0.1 0.06,0 0.12,-0.24 0.12,-0.4 v -0.04 c 0,-0.08 0.02,-0.16 0.1,-0.18 0.06,-0.02 0.1,-0.08 0.1,-0.12 v -0.02 c 0,-0.04 0.02,-0.1 0.06,-0.14 0.02,-0.04 0.04,-0.08 0.04,-0.12 l -0.02,-0.08 c 0,-0.02 0.02,-0.02 0.06,-0.02 0.04,0 0.06,-0.02 0.06,-0.06 v -0.06 c 0,-0.16 0.2,-0.62 0.28,-0.62 h 0.02 c 0.02,0 0.02,-0.04 0.02,-0.1 V 10.2 c 0,-0.02 0,-0.04 0.02,-0.04 l 0.12,0.02 c 0.04,0 0.06,0 0.06,-0.02 0,-0.04 -0.04,-0.08 -0.08,-0.08 -0.02,0 -0.02,-0.04 -0.02,-0.08 0,-0.14 0.08,-0.4 0.14,-0.4 0.02,0 0.04,-0.02 0.04,-0.04 L 12.58,9.52 12.56,9.44 12.62,9.46 c 0.04,0 0.06,-0.02 0.06,-0.08 0.02,-0.08 0.04,-0.12 0.08,-0.12 l 0.02,-0.02 -0.02,-0.1 c 0,-0.06 0.04,-0.16 0.08,-0.24 0.06,-0.08 0.12,-0.2 0.12,-0.24 0,-0.02 0.02,-0.06 0.06,-0.08 0.04,-0.02 0.06,-0.04 0.06,-0.08 L 13.04,8.4 c 0,-0.04 0.04,-0.06 0.1,-0.08 0.04,-0.02 0.08,-0.04 0.08,-0.1 V 8.18 c 0,-0.06 0.04,-0.16 0.1,-0.24 0.06,-0.12 0.12,-0.24 0.12,-0.28 0,-0.08 0.16,-0.48 0.22,-0.56 0.04,-0.04 0.12,-0.24 0.18,-0.4 0.06,-0.2 0.2,-0.44 0.26,-0.44 h 0.02 C 14.14,6.26 14.18,6.2 14.18,6.1 14.2,6 14.26,5.86 14.34,5.78 14.4,5.7 14.46,5.6 14.46,5.52 V 5.48 c 0,-0.08 0.02,-0.2 0.08,-0.26 0.04,-0.06 0.1,-0.2 0.14,-0.3 0.02,-0.1 0.08,-0.2 0.1,-0.2 0.02,0 0.06,-0.08 0.1,-0.18 0.06,-0.18 0.42,-0.82 0.56,-0.98 l 0.08,-0.2 c 0.02,-0.08 0.04,-0.12 0.08,-0.12 0.02,0 0.04,0.02 0.06,0.08 l 0.02,0.02 c 0.02,0 0.04,-0.08 0.06,-0.18 0.04,-0.28 0.08,-0.38 0.14,-0.38 h 0.04 C 15.94,2.8 15.98,2.8 16,2.8 c 0.1,0 0.18,-0.06 0.18,-0.12 V 2.66 L 16.22,2.5 c 0.02,-0.04 0.1,-0.14 0.16,-0.26 0.08,-0.1 0.14,-0.14 0.2,-0.14 0.06,0 0.1,0.04 0.12,0.16 V 2.34 L 16.6,2.18 16.54,2.24 16.52,2.32 c 0,0.04 0.02,0.08 0.06,0.12 0.04,0.02 0.06,0.06 0.06,0.08 -0.04,0 -0.08,-0.02 -0.12,-0.06 L 16.5,2.44 c -0.02,0 -0.04,0.02 -0.06,0.08 V 2.6 c 0,0.04 0.02,0.08 0.04,0.1 l 0.02,0.04 c 0,0.08 -0.18,0.3 -0.3,0.36 -0.06,0.02 -0.12,0.06 -0.12,0.08 l 0.04,0.04 0.06,-0.02 c 0.02,0 0.02,0.02 0.02,0.04 -0.02,0.06 -0.04,0.08 -0.08,0.08 -0.02,0 -0.02,0.02 -0.02,0.06 v 0.06 c 0,0.08 0,0.12 0.02,0.12 l 0.1,-0.06 c 0.02,0 0.02,0.02 0.04,0.08 0,0.06 -0.04,0.14 -0.1,0.18 -0.04,0.04 -0.08,0.1 -0.08,0.14 L 16.1,3.98 C 16.1,4 16.08,4.02 16.06,4.04 16.02,4.06 15.98,4.12 15.98,4.16 V 4.2 c 0,0.04 -0.02,0.06 -0.04,0.06 -0.02,0 -0.02,0 -0.02,0.04 v 0.06 c 0,0.08 -0.16,0.18 -0.38,0.2 -0.06,0.02 -0.14,0.06 -0.18,0.1 L 15.34,4.7 c 0,0.02 0.02,0.02 0.04,0.02 h 0.16 c 0.06,0 0.1,0.02 0.1,0.06 v 0.04 c 0,0.02 -0.02,0.04 -0.04,0.04 h -0.02 l -0.04,0.02 0.02,0.1 -0.04,0.08 c -0.06,0.02 -0.08,0.08 -0.08,0.16 v 0.02 c 0,0.06 -0.06,0.1 -0.14,0.12 -0.08,0.02 -0.12,0.04 -0.12,0.08 l 0.08,0.2 -0.04,0.02 c -0.02,0.02 -0.04,0.06 -0.04,0.12 0,0.04 -0.02,0.08 -0.08,0.08 -0.04,0 -0.06,0.04 -0.06,0.1 V 6 c 0,0.08 0,0.16 -0.04,0.18 -0.04,0.02 -0.04,0.06 -0.04,0.08 0,0.04 0.02,0.06 0.04,0.06 L 15.08,6.3 15.1,6.34 15.06,6.58 c 0,0.04 0.02,0.06 0.1,0.08 h 0.04 c 0.02,0 0.02,0 0.02,-0.02 V 6.6 c 0,-0.12 0.18,-0.32 0.28,-0.32 0.06,0 0.08,0.02 0.08,0.06 0,0.04 -0.02,0.08 -0.1,0.12 -0.04,0.04 -0.08,0.1 -0.08,0.16 0,0.06 -0.02,0.14 -0.06,0.16 -0.06,0.02 -0.08,0.06 -0.08,0.08 0,0.04 -0.04,0.14 -0.12,0.22 -0.04,0.08 -0.08,0.14 -0.08,0.2 L 15.08,7.34 15.04,7.3 C 15,7.26 14.98,7.24 14.98,7.2 l 0.04,-0.16 c 0.02,-0.06 0.02,-0.14 0.02,-0.18 0,-0.06 0,-0.1 -0.02,-0.1 -0.02,0 -0.04,0.02 -0.06,0.08 L 14.94,6.9 c 0,0.04 0.02,0.08 0.04,0.1 L 15,7.04 H 14.96 L 14.88,7.02 c -0.04,0 -0.06,0.04 -0.06,0.1 -0.02,0.06 -0.06,0.1 -0.08,0.1 -0.02,0 -0.04,0.02 -0.04,0.06 l 0.04,0.2 c 0,0.02 0,0.02 -0.02,0.02 h -0.06 c -0.04,0 -0.08,0.06 -0.12,0.14 L 14.5,7.88 C 14.5,7.96 14.52,8 14.56,8 14.6,8 14.6,7.96 14.6,7.9 L 14.58,7.72 c 0,-0.08 0.26,-0.24 0.36,-0.24 L 15,7.52 c 0,0.04 -0.04,0.08 -0.1,0.14 -0.08,0.06 -0.14,0.18 -0.16,0.28 0,0.1 -0.04,0.2 -0.1,0.22 -0.04,0.02 -0.08,0.06 -0.08,0.14 v 0.12 c 0,0.06 -0.02,0.1 -0.04,0.1 -0.04,0.02 -0.06,0.06 -0.06,0.1 v 0.04 c 0,0.04 -0.02,0.08 -0.04,0.1 -0.04,0.02 -0.1,0.12 -0.16,0.22 C 14.24,9.06 14.2,9.1 14.16,9.1 L 14.12,9.08 C 14.1,9.06 14.08,9.04 14.08,9 l 0.08,-0.16 c -0.04,0 -0.1,0.06 -0.2,0.16 -0.1,0.12 -0.14,0.18 -0.14,0.22 0,0.04 0.04,0.04 0.12,0.04 0.06,0 0.1,-0.04 0.1,-0.06 0,-0.02 0.02,-0.04 0.04,-0.04 l 0.06,0.02 c 0.06,0.02 0.1,0.04 0.1,0.1 V 9.4 c 0,0.02 -0.04,0.04 -0.08,0.04 -0.04,0 -0.12,0.06 -0.14,0.12 -0.04,0.06 -0.08,0.1 -0.1,0.1 -0.02,0 -0.04,-0.02 -0.04,-0.08 l 0.04,-0.26 -0.06,0.04 c -0.04,0.06 -0.06,0.12 -0.06,0.16 0,0.04 -0.02,0.06 -0.04,0.06 L 13.68,9.56 c -0.02,0 -0.02,0 -0.02,0.02 L 13.7,9.7 c 0,0.02 -0.04,0.04 -0.1,0.06 -0.06,0.02 -0.1,0.08 -0.1,0.12 0,0.04 0.04,0.06 0.06,0.06 0.06,0 0.14,-0.06 0.2,-0.14 0.04,-0.06 0.06,-0.1 0.1,-0.1 h 0.04 c 0.12,0 0.42,-0.32 0.42,-0.46 V 9.22 c 0,-0.08 0.02,-0.14 0.06,-0.16 C 14.42,9.04 14.44,9.02 14.44,9 L 14.42,8.94 c 0,-0.04 0.04,-0.06 0.1,-0.08 h 0.08 c 0.06,0 0.12,0.02 0.16,0.06 0.02,0.04 0.04,0.06 0.06,0.06 0.02,0 0.06,-0.04 0.1,-0.12 0.04,-0.06 0.06,-0.12 0.1,-0.12 v 0.04 c 0,0.12 -0.2,0.5 -0.28,0.5 H 14.7 c -0.04,0 -0.08,0.04 -0.08,0.08 0,0.02 0.02,0.04 0.06,0.06 0.02,0.02 0.04,0.04 0.04,0.06 L 14.68,9.54 C 14.62,9.58 14.6,9.66 14.6,9.72 V 9.76 L 14.58,9.74 14.56,9.66 14.6,9.48 C 14.6,9.44 14.56,9.44 14.5,9.42 L 14.44,9.4 c -0.04,0 -0.06,0.06 -0.08,0.16 -0.04,0.12 -0.08,0.16 -0.16,0.16 h -0.06 c -0.02,0 -0.04,0 -0.04,0.04 v 0.02 c 0,0.04 -0.02,0.06 -0.06,0.06 -0.04,0 -0.08,0.06 -0.1,0.1 l -0.02,0.12 c 0,0.04 0.02,0.08 0.04,0.08 L 14,10.1 14.02,10.12 14,10.2 c -0.04,0.08 -0.06,0.12 -0.08,0.12 L 13.9,10.3 13.92,10.2 c 0,-0.04 -0.02,-0.06 -0.04,-0.06 -0.02,0 -0.04,0 -0.04,-0.04 L 13.86,10.04 13.9,9.88 V 9.86 c -0.02,0 -0.06,0.04 -0.1,0.14 -0.04,0.06 -0.06,0.14 -0.06,0.2 v 0.04 c 0,0 -0.02,0.02 -0.06,0.02 -0.02,0 -0.04,0.02 -0.04,0.04 v 0.08 c 0,0.06 -0.02,0.1 -0.04,0.12 -0.04,0.04 -0.08,0.14 -0.08,0.2 -0.02,0.08 -0.06,0.2 -0.12,0.3 -0.04,0.08 -0.06,0.12 -0.12,0.12 L 13.2,11.08 c -0.06,-0.04 -0.1,-0.1 -0.1,-0.16 l -0.06,0.12 c -0.06,0.12 -0.08,0.2 -0.08,0.24 0,0.04 0.02,0.06 0.06,0.06 0.02,0 0.02,-0.02 0.02,-0.04 v -0.04 c 0,-0.06 0.08,-0.08 0.16,-0.08 0.04,0 0.08,0 0.1,0.04 l 0.02,0.04 -0.04,0.02 c -0.02,0 -0.04,0.04 -0.04,0.08 0,0.04 -0.04,0.16 -0.08,0.24 -0.04,0.06 -0.06,0.14 -0.06,0.2 l 0.02,0.12 c 0,0.02 -0.02,0.04 -0.04,0.04 -0.04,0 -0.08,-0.02 -0.12,-0.04 L 12.88,11.9 c -0.02,0 -0.02,0.02 -0.02,0.06 0.02,0.04 0.04,0.1 0.08,0.1 0.02,0 0.04,0.02 0.04,0.04 v 0.02 c 0,0.02 0.08,0.02 0.16,0.02 h 0.08 c 0.08,0 0.12,0 0.14,0.02 l 0.02,0.02 c 0,0.04 -0.06,0.06 -0.16,0.06 h -0.08 c -0.04,0 -0.06,0.02 -0.06,0.06 0,0.02 -0.04,0.04 -0.08,0.04 -0.04,0 -0.06,0.02 -0.06,0.04 v 0.02 c 0.04,0.04 0.08,0.04 0.12,0.04 l 0.04,-0.02 c 0.02,0 0.04,0.04 0.04,0.12 0,0.32 -0.04,0.4 -0.22,0.4 -0.1,0 -0.14,0 -0.14,0.02 L 12.82,13 c 0.06,0.04 0.14,0.06 0.2,0.06 0.1,0 0.18,-0.04 0.2,-0.16 0.02,-0.06 0.04,-0.1 0.06,-0.1 l 0.02,0.02 v 0.04 l -0.02,0.1 c -0.04,0.06 -0.12,0.28 -0.2,0.5 -0.06,0.24 -0.16,0.46 -0.2,0.5 -0.04,0.06 -0.18,0.4 -0.32,0.76 -0.12,0.36 -0.26,0.66 -0.28,0.66 -0.02,0 -0.04,-0.02 -0.04,-0.06 v -0.06 c 0,-0.06 0,-0.08 -0.04,-0.08 l -0.06,0.02 c -0.06,0.04 -0.1,0.06 -0.1,0.1 v 0.04 c 0,0.02 0,0.02 -0.02,0.02 H 12 c -0.04,0 -0.08,0.04 -0.08,0.12 -0.02,0.14 -0.08,0.24 -0.16,0.24 l -0.08,-0.02 0.02,0.06 0.06,0.18 v 0.1 l 0.06,-0.08 c 0.02,-0.04 0.04,-0.06 0.06,-0.06 0.02,0 0.04,0.02 0.04,0.04 l 0.02,0.02 c 0.02,0 0.04,-0.04 0.06,-0.1 l 0.04,-0.08 -0.02,-0.02 -0.08,0.02 c 0,-0.04 0.04,-0.12 0.12,-0.2 0.06,-0.06 0.1,-0.1 0.14,-0.1 l 0.02,0.04 -0.04,0.08 -0.08,0.28 c -0.02,0.1 -0.12,0.38 -0.24,0.64 -0.1,0.26 -0.16,0.36 -0.18,0.36 -0.02,0 -0.04,-0.02 -0.06,-0.06 l -0.06,-0.1 v 0.02 c 0,0.02 -0.06,0.1 -0.16,0.14 -0.08,0.04 -0.12,0.08 -0.12,0.12 0,0.04 0.04,0.08 0.12,0.1 h 0.02 c 0.04,0 0.06,-0.04 0.06,-0.08 V 17 c 0,-0.04 0.02,-0.06 0.06,-0.06 0.02,0 0.06,0 0.08,0.04 V 17 c 0,0.14 -0.24,0.78 -0.38,0.94 l -0.08,0.14 c 0,0.12 -0.44,1.04 -0.54,1.14 -0.04,0.04 -0.08,0.12 -0.08,0.14 0,0.12 -0.34,0.5 -0.5,0.58 C 9.96,19.98 9.82,20 9.68,20 H 9.58 C 9.24,19.98 8.78,19.7 8.46,19.34 8.24,19.06 8.2,19.04 8,18.86 7.8,18.68 7.58,18.32 7.44,17.92 7.32,17.52 7.14,16 7.14,15.4 c 0,-0.38 -0.02,-0.56 -0.06,-0.56 -0.02,0 -0.02,0 -0.02,-0.02 L 7.08,14.8 C 7.12,14.78 7.16,14.52 7.16,14.24 L 7.2,13.66 C 7.22,13.64 7.24,13.4 7.26,13.12 7.28,12.6 7.4,11.62 7.44,11.44 V 11.4 c 0,-0.04 -0.02,-0.06 -0.04,-0.06 -0.02,0 -0.04,0.02 -0.04,0.04 v 0.04 c 0,0.12 -0.26,0.64 -0.34,0.64 L 7,12.08 7.02,12.1 v 0.04 c 0,0.04 -0.02,0.1 -0.06,0.14 -0.04,0.06 -0.1,0.16 -0.12,0.22 -0.04,0.06 -0.08,0.12 -0.12,0.12 -0.08,0 -0.14,0.06 -0.14,0.14 l 0.04,0.08 c 0.04,0.04 0.04,0.06 0.04,0.1 0,0.06 -0.06,0.12 -0.16,0.12 -0.1,0 -0.12,-0.02 -0.12,-0.08 v -0.02 c 0,-0.04 -0.02,-0.08 -0.06,-0.1 H 6.28 c -0.02,0 -0.02,0 -0.02,0.02 L 6.3,13.04 H 6.24 c -0.02,0 -0.06,0.04 -0.08,0.08 -0.02,0.06 -0.06,0.1 -0.1,0.1 H 5.98 c -0.06,0 -0.08,0.02 -0.08,0.08 0,0.02 0,0.06 0.04,0.1 0.06,0.04 0.1,0.08 0.12,0.08 0.02,0 0.08,0.04 0.14,0.1 0.06,0.04 0.08,0.06 0.08,0.1 L 6.22,13.76 C 6.16,13.82 6.1,13.84 6.08,13.84 L 6.04,13.82 6.08,13.74 C 6.12,13.7 6.14,13.66 6.14,13.64 6.14,13.62 6.12,13.6 6.06,13.56 L 5.92,13.52 c -0.1,0 -0.22,0.06 -0.22,0.12 v 0.04 c 0,0.04 -0.04,0.06 -0.08,0.08 -0.06,0.02 -0.08,0.06 -0.08,0.12 0,0.04 0.02,0.06 0.06,0.06 h 0.02 c 0.04,-0.02 0.1,-0.06 0.14,-0.12 0.02,-0.04 0.06,-0.06 0.08,-0.06 l 0.06,0.02 0.04,0.04 c 0,0.02 -0.02,0.04 -0.06,0.08 -0.04,0.04 -0.08,0.08 -0.08,0.12 l 0.02,0.02 v 0.04 L 5.78,14.06 C 5.76,14.04 5.72,14.02 5.68,14.02 l -0.1,0.02 c -0.08,0.02 -0.1,0.04 -0.1,0.06 l 0.04,0.08 c 0.04,0.04 0.1,0.08 0.14,0.08 l -0.02,-0.1 c 0,-0.02 0,-0.02 0.02,-0.02 0.04,0 0.06,0.02 0.08,0.04 0,0.02 0.02,0.02 0.04,0.02 0.02,0 0.06,0 0.08,-0.02 0.06,-0.04 0.1,-0.06 0.1,-0.08 L 5.92,14.06 C 5.9,14.04 5.88,14.04 5.88,14.02 5.88,14 5.92,14 6.02,13.98 h 0.06 c 0.04,0 0.08,0.02 0.08,0.04 0,0.04 -0.04,0.08 -0.1,0.14 C 6.02,14.2 6,14.26 6,14.3 v 0.04 C 6,14.38 5.98,14.42 5.96,14.46 5.92,14.5 5.9,14.58 5.9,14.64 5.9,14.68 5.86,14.8 5.78,14.92 5.7,15.02 5.6,15.24 5.54,15.4 5.48,15.58 5.42,15.7 5.36,15.7 H 5.32 l 0.02,0.12 c 0,0.06 -0.04,0.12 -0.1,0.12 L 5.18,15.92 C 5.14,15.9 5.12,15.86 5.12,15.8 v -0.12 c 0,-0.02 0,-0.04 -0.02,-0.04 l -0.16,0.08 c -0.02,0 -0.02,-0.02 -0.02,-0.04 0,-0.02 0,-0.08 0.04,-0.14 C 4.98,15.5 5,15.46 5.04,15.46 l 0.04,0.04 c 0.04,0.04 0.08,0.06 0.1,0.06 0.06,0 0.1,-0.04 0.1,-0.14 0.02,-0.06 0.04,-0.18 0.04,-0.26 V 15.1 c 0,-0.04 -0.02,-0.08 -0.04,-0.08 -0.02,0 -0.04,0.04 -0.04,0.1 v 0.06 c 0,0.08 -0.02,0.16 -0.06,0.18 L 5.1,15.38 c -0.04,0 -0.06,-0.02 -0.06,-0.04 0,-0.02 0,-0.04 0.04,-0.06 l 0.12,-0.2 0.02,-0.12 c 0,-0.02 0,-0.02 -0.02,-0.02 l -0.06,0.02 c -0.04,0 -0.1,0.08 -0.12,0.16 0,0.08 -0.02,0.14 -0.06,0.14 -0.02,0 -0.04,0.06 -0.04,0.12 v 0.06 c 0,0.02 0,0.04 -0.02,0.04 L 4.84,15.46 4.82,15.5 4.84,15.6 c 0,0.04 -0.02,0.08 -0.08,0.12 L 4.7,15.78 4.74,15.82 4.68,16 c 0,0.02 0,0.02 0.02,0.02 h 0.02 c 0.02,0 0.08,0.02 0.1,0.06 0.06,0.04 0.16,0.08 0.26,0.08 0.06,0 0.1,0.02 0.1,0.02 L 5.16,16.2 5.04,16.44 c -0.04,0.1 -0.1,0.2 -0.16,0.2 -0.06,0 -0.08,0 -0.08,-0.04 L 4.84,16.44 C 4.86,16.36 4.9,16.32 4.92,16.32 H 4.98 L 4.96,16.28 C 4.94,16.24 4.92,16.24 4.88,16.24 c -0.1,0 -0.22,0.06 -0.28,0.18 -0.04,0.06 -0.06,0.18 -0.06,0.3 0,0.1 0.02,0.18 0.04,0.18 l 0.04,-0.02 c 0.04,-0.04 0.12,-0.06 0.16,-0.06 0.06,0 0.1,0.02 0.1,0.06 V 16.9 H 4.86 l -0.08,-0.02 0.02,0.04 0.02,0.06 c 0,0.04 -0.02,0.1 -0.06,0.16 -0.04,0.08 -0.08,0.16 -0.08,0.22 v 0.02 c 0,0.06 -0.02,0.08 -0.06,0.08 -0.02,0 -0.04,0.04 -0.04,0.1 0,0.04 -0.04,0.08 -0.12,0.08 -0.04,0 -0.08,0.02 -0.08,0.04 l 0.06,0.08 c 0,0.14 -0.16,0.4 -0.26,0.4 L 4.1,18.14 c -0.04,0 -0.06,0.04 -0.06,0.12 0,0.06 0,0.12 0.02,0.18 l 0.02,0.1 c 0,0.04 -0.02,0.06 -0.06,0.06 -0.04,0 -0.08,0.06 -0.1,0.14 0,0.08 -0.06,0.16 -0.14,0.16 L 3.66,18.92 3.62,18.9 3.68,18.72 c 0,-0.04 -0.02,-0.04 -0.06,-0.04 H 3.58 v 0.06 c 0,0.08 -0.08,0.22 -0.14,0.22 -0.06,0 -0.08,0.02 -0.08,0.06 0,0.02 0.02,0.06 0.06,0.08 0.04,0.02 0.08,0.06 0.08,0.1 0,0.06 -0.04,0.1 -0.1,0.18 -0.04,0.04 -0.06,0.1 -0.06,0.14 v 0.02 c 0.02,0 0.1,-0.1 0.18,-0.26 0.08,-0.14 0.14,-0.22 0.18,-0.22 l 0.02,0.02 0.02,0.06 c 0,0.1 -0.1,0.26 -0.28,0.5 -0.06,0.1 -0.12,0.2 -0.12,0.26 v 0.04 c 0,0 -0.02,0.02 -0.06,0.02 -0.04,0 -0.06,0.02 -0.06,0.06 v 0.02 c 0,0.12 -0.3,0.56 -0.5,0.68 -0.16,0.1 -0.28,0.16 -0.42,0.16 z M 16.16,2.44 H 16.14 V 2.42 c 0,-0.06 0.04,-0.14 0.08,-0.22 0.04,-0.06 0.08,-0.1 0.1,-0.1 h 0.02 v 0.04 c 0,0.12 -0.12,0.3 -0.18,0.3 z m 1.22,0.4 -0.04,-0.02 V 2.8 L 17.38,2.78 17.42,2.8 V 2.82 Z M 17.22,3.08 17.2,3.06 17.22,3.02 c 0,-0.04 0.04,-0.06 0.04,-0.06 0.02,0 0.02,0.02 0.02,0.06 -0.02,0.02 -0.04,0.06 -0.06,0.06 z m -0.84,0.1 V 3.12 C 16.4,3.1 16.42,3.08 16.44,3.08 L 16.46,3.1 16.44,3.12 C 16.42,3.16 16.4,3.18 16.38,3.18 Z m 0.54,0.36 V 3.5 c 0,-0.04 0.04,-0.14 0.1,-0.22 0.04,-0.08 0.08,-0.12 0.1,-0.12 V 3.22 C 17.1,3.34 16.96,3.54 16.92,3.54 Z M 16.3,3.36 c -0.02,0 -0.02,-0.02 -0.04,-0.06 0,-0.02 0.02,-0.06 0.06,-0.06 0.04,0 0.04,0.04 0.04,0.06 -0.02,0.04 -0.04,0.06 -0.06,0.06 z M 16,3.7 16.02,3.66 15.98,3.58 C 15.96,3.56 15.94,3.56 15.92,3.56 c 0,0 -0.02,0 -0.02,0.02 0.02,0.06 0.06,0.12 0.1,0.12 z m -0.5,0.08 c 0.02,0 0.04,-0.04 0.06,-0.06 L 15.58,3.68 15.56,3.66 c -0.02,0 -0.04,0.02 -0.06,0.06 z m 1,0.54 c -0.02,0 -0.06,-0.04 -0.08,-0.08 V 4.2 c 0,-0.04 0.02,-0.06 0.08,-0.08 0.06,-0.02 0.1,-0.08 0.12,-0.16 0,-0.06 0.04,-0.12 0.06,-0.12 L 16.72,3.82 16.7,3.76 c 0,-0.04 0,-0.08 0.02,-0.08 L 16.8,3.66 c 0.02,0 0.02,0.02 0.02,0.04 0,0.06 -0.04,0.16 -0.1,0.3 C 16.6,4.22 16.54,4.32 16.5,4.32 Z M 16.4,3.9 C 16.36,3.9 16.34,3.88 16.34,3.84 V 3.8 c 0.02,0 0.04,0 0.04,0.02 l 0.08,0.06 c 0,0.02 -0.02,0.02 -0.06,0.02 z m 0.84,0.06 c -0.02,0 -0.02,-0.02 -0.02,-0.04 V 3.9 c 0,-0.02 0.04,-0.06 0.04,-0.06 0.02,0 0.04,0.04 0.04,0.06 0,0.04 -0.02,0.06 -0.06,0.06 z m -0.78,0.12 c -0.02,0 -0.04,-0.02 -0.08,-0.06 V 3.98 c 0,-0.02 0,-0.02 0.02,-0.02 0.04,0 0.06,0.02 0.08,0.06 0,0.04 -0.02,0.06 -0.02,0.06 z m -0.38,0.36 c -0.02,0 -0.02,-0.02 -0.02,-0.04 l 0.02,-0.1 c 0.04,-0.08 0.08,-0.12 0.1,-0.12 l 0.02,-0.02 0.02,0.02 0.02,0.04 c 0,0.08 -0.08,0.22 -0.16,0.22 z M 15.7,4.42 15.74,4.4 C 15.76,4.38 15.78,4.32 15.78,4.26 L 15.76,4.2 c -0.02,0 -0.02,0.02 -0.04,0.06 -0.02,0.04 -0.04,0.08 -0.04,0.12 z m 1.34,-0.04 c 0,0 -0.02,-0.02 -0.02,-0.06 0,-0.04 0.02,-0.06 0.04,-0.06 0.02,0 0.04,0.02 0.04,0.04 v 0.02 c -0.02,0.04 -0.04,0.06 -0.06,0.06 z m -1.88,0.04 c 0,-0.02 0,-0.08 -0.02,-0.12 L 15.12,4.28 15.1,4.3 15.14,4.42 Z m 1.08,0.16 H 16.2 c -0.04,0 -0.04,0 -0.06,-0.02 0,-0.04 0.04,-0.06 0.08,-0.06 0.04,0 0.08,0 0.08,0.02 v 0.02 z m -1.08,1.64 c -0.02,0 -0.04,0 -0.04,-0.04 V 6.16 c 0,-0.08 0.14,-0.32 0.28,-0.5 0.08,-0.1 0.1,-0.14 0.14,-0.14 l 0.1,0.1 c 0.02,0 0.02,-0.02 0.02,-0.04 0,-0.02 0.02,-0.04 0.04,-0.04 h 0.06 c 0.04,0 0.06,-0.02 0.08,-0.06 V 5.46 C 15.84,5.4 15.8,5.38 15.72,5.38 h -0.1 c -0.02,0 -0.04,-0.02 -0.06,-0.04 0,-0.04 0.02,-0.06 0.04,-0.06 0.02,0 0.1,-0.14 0.16,-0.3 0.08,-0.16 0.16,-0.3 0.18,-0.3 0.02,0 0.04,0.02 0.04,0.04 l -0.04,0.1 C 15.92,4.88 15.9,4.9 15.9,4.94 15.9,4.96 15.92,4.98 15.96,5 H 16 c 0.04,0 0.1,-0.02 0.12,-0.06 L 16.2,4.86 c 0.02,0 0.02,0.02 0.02,0.04 L 16.18,5.1 C 16.16,5.18 16.14,5.24 16.12,5.24 V 5.22 C 16.12,5.2 16.1,5.18 16.08,5.18 H 16.06 C 16.04,5.2 16.02,5.22 16.02,5.24 l 0.04,0.08 -0.04,0.02 c -0.04,0 -0.06,0.06 -0.06,0.18 V 5.6 c 0,0.06 -0.2,0.16 -0.34,0.16 L 15.48,5.74 15.46,5.78 15.5,5.9 h -0.06 c -0.02,0 -0.04,0.04 -0.06,0.08 0,0.06 -0.02,0.1 -0.04,0.1 H 15.3 c -0.02,0 -0.04,0.02 -0.04,0.06 -0.02,0.04 -0.06,0.08 -0.1,0.08 z M 15.44,4.9 c 0,0 0.02,0 0.02,-0.02 0,0 -0.04,-0.04 -0.1,-0.06 H 15.3 c 0,0 0,0.02 0.02,0.02 0.02,0.04 0.08,0.06 0.12,0.06 z M 15.22,5.26 15.28,5.2 15.3,5.1 V 5.04 c 0,0 -0.02,0 -0.04,0.04 l -0.04,0.16 z m 1.2,-0.12 H 16.4 L 16.38,5.1 c 0,-0.04 0,-0.06 0.02,-0.06 L 16.44,5.1 Z M 15.14,5.18 15.16,5.14 15.12,5.1 C 15.1,5.1 15.1,5.12 15.1,5.14 l 0.02,0.04 z m 1.38,0.18 H 16.5 L 16.46,5.3 c 0,-0.04 0.02,-0.08 0.04,-0.08 0.04,0 0.06,0.02 0.08,0.04 0,0.04 -0.02,0.08 -0.06,0.1 z m 0.1,0.1 V 5.34 c 0,-0.08 0.04,-0.12 0.06,-0.12 0.02,0 0.04,0.02 0.04,0.04 L 16.7,5.34 C 16.66,5.4 16.64,5.46 16.62,5.46 Z M 16.16,5.5 16.14,5.48 c 0,-0.04 0.04,-0.12 0.08,-0.18 l 0.04,-0.06 h 0.02 l 0.02,0.04 c 0,0.06 -0.02,0.14 -0.08,0.18 z m 0.26,0.1 H 16.38 L 16.32,5.58 c 0,-0.04 0.04,-0.08 0.08,-0.1 h 0.06 c 0.02,0 0.02,0.02 0.02,0.02 v 0.02 c 0,0.04 -0.02,0.06 -0.06,0.08 z m -0.34,0.12 c -0.02,0 -0.02,0 -0.02,-0.02 0,-0.06 0.04,-0.12 0.1,-0.12 H 16.2 V 5.6 c 0,0.02 -0.02,0.04 -0.06,0.08 -0.02,0.04 -0.04,0.04 -0.06,0.04 z M 15,5.68 c 0.02,0 0.04,0 0.04,-0.02 L 15.02,5.64 14.98,5.62 14.96,5.66 Z M 14.88,5.96 14.94,5.9 C 14.96,5.86 14.98,5.8 14.98,5.76 V 5.74 h -0.02 c -0.04,0 -0.1,0.14 -0.1,0.2 0,0.02 0,0.02 0.02,0.02 z M 14.68,5.92 14.72,5.9 V 5.88 L 14.68,5.86 14.64,5.88 V 5.9 Z m 0.98,0.2 h -0.04 c -0.04,0 -0.06,-0.02 -0.08,-0.04 0,-0.06 0.02,-0.1 0.06,-0.1 l 0.04,-0.02 -0.06,-0.08 0.08,0.04 c 0.08,0.04 0.1,0.08 0.1,0.12 0,0.04 -0.02,0.06 -0.1,0.08 z m -0.94,0.46 c 0.02,0 0.04,-0.06 0.04,-0.12 V 6.42 c 0,-0.06 0.02,-0.08 0.06,-0.08 0.02,0 0.02,0 0.02,-0.02 L 14.8,6.28 C 14.76,6.26 14.74,6.22 14.74,6.18 L 14.76,6.1 14.7,6.16 c -0.04,0.04 -0.06,0.12 -0.06,0.22 0,0.1 0.02,0.2 0.08,0.2 z M 16.06,6.52 V 6.5 c 0,-0.1 0.08,-0.28 0.12,-0.3 h 0.02 v 0.04 c 0,0.04 -0.02,0.1 -0.06,0.16 -0.04,0.06 -0.06,0.12 -0.08,0.12 z m -8,0.12 C 8.08,6.64 8.08,6.62 8.08,6.6 V 6.58 C 8.08,6.54 8.06,6.52 8.02,6.52 L 7.98,6.54 Z m 0.14,0 C 8.24,6.64 8.26,6.6 8.26,6.58 8.26,6.54 8.22,6.52 8.2,6.52 8.16,6.52 8.14,6.54 8.14,6.58 8.14,6.6 8.18,6.64 8.2,6.64 Z m 6.2,0.26 0.1,-0.1 0.1,-0.2 c 0,-0.02 -0.04,-0.02 -0.08,-0.02 -0.12,0 -0.2,0.08 -0.2,0.18 l 0.02,0.08 C 14.36,6.88 14.38,6.9 14.4,6.9 Z M 15.52,7.64 15.44,7.6 C 15.42,7.56 15.4,7.52 15.4,7.46 c 0,-0.14 0.06,-0.28 0.12,-0.28 0.04,0 0.06,0 0.06,-0.02 L 15.5,7.1 C 15.46,7.06 15.42,7.04 15.42,7 L 15.46,6.9 C 15.5,6.84 15.52,6.82 15.54,6.82 v 0.12 c 0,0.04 0.02,0.08 0.06,0.1 h 0.02 c 0.02,0 0.04,-0.06 0.04,-0.14 V 6.82 c 0,-0.08 0.02,-0.12 0.1,-0.16 l 0.1,-0.04 c 0.02,0 0.04,0 0.04,0.02 0,0.02 0.02,0.04 0.04,0.04 L 16.04,6.66 16,6.8 c -0.14,0.32 -0.22,0.42 -0.28,0.42 h -0.04 c -0.02,0 -0.08,0.06 -0.12,0.12 l -0.04,0.12 c 0,0.04 0.02,0.06 0.04,0.06 0.02,0.02 0.04,0.02 0.04,0.06 V 7.6 c -0.02,0.02 -0.04,0.04 -0.08,0.04 z m -0.9,-0.76 c 0.04,0 0.1,-0.06 0.12,-0.12 l 0.02,-0.12 c -0.02,0 -0.06,0.04 -0.1,0.12 C 14.62,6.8 14.6,6.84 14.6,6.86 Z M 14.26,7 C 14.28,7 14.3,6.98 14.3,6.96 V 6.94 c 0,-0.04 0,-0.06 -0.02,-0.06 -0.02,0 -0.04,0.02 -0.06,0.06 0,0.02 0,0.06 0.04,0.06 z M 8.2,7.16 V 7.12 L 8.18,7.06 c -0.02,0 -0.02,0 -0.02,0.02 v 0.04 l 0.02,0.04 z m 6.3,0.06 c 0.02,0 0.02,0 0.02,-0.02 0,-0.02 -0.04,-0.04 -0.08,-0.06 L 14.4,7.12 14.42,7.16 c 0.02,0.04 0.06,0.06 0.08,0.06 z m -0.46,0.24 c 0.08,0 0.18,-0.06 0.2,-0.16 L 14.26,7.18 14.2,7.26 c -0.04,0.06 -0.08,0.1 -0.12,0.1 h -0.02 c -0.06,0 -0.08,0 -0.08,0.04 0,0.04 0.04,0.06 0.06,0.06 z M 7.84,7.28 c 0.02,0 0.04,0 0.04,-0.02 V 7.24 H 7.8 v 0.02 c 0,0.02 0.02,0.02 0.04,0.02 z m 7.48,0.1 H 15.3 c -0.02,0 -0.04,-0.02 -0.06,-0.04 V 7.3 c 0,-0.02 0.02,-0.04 0.04,-0.04 0.06,0 0.08,0.02 0.08,0.06 0,0.02 0,0.04 -0.04,0.06 z m -1.16,1.28 c 0.02,0 0.06,-0.04 0.06,-0.12 C 14.2,8.46 14.2,8.42 14.18,8.42 l -0.22,0.1 V 8.48 c 0,-0.06 0.06,-0.1 0.12,-0.1 0.06,-0.02 0.1,-0.04 0.1,-0.06 L 14.16,8.24 c 0,-0.08 0.06,-0.22 0.2,-0.5 0.04,-0.1 0.06,-0.2 0.06,-0.28 0,-0.08 -0.02,-0.12 -0.06,-0.12 -0.02,0 -0.04,0.06 -0.04,0.12 0,0.08 -0.02,0.12 -0.06,0.12 -0.06,0 -0.14,0.1 -0.14,0.2 l 0.02,0.08 c 0,0.1 -0.24,0.54 -0.32,0.58 -0.02,0 -0.04,0.02 -0.04,0.04 0,0.04 0.08,0.1 0.18,0.1 l 0.1,-0.02 c 0.04,0 0.06,0.02 0.06,0.04 0,0.04 0.02,0.06 0.04,0.06 z M 14.94,7.42 C 14.9,7.42 14.88,7.4 14.88,7.38 l 0.04,-0.02 c 0.02,0 0.04,0 0.04,0.02 L 14.98,7.4 Z M 15.2,7.76 15.22,7.7 C 15.22,7.64 15.2,7.6 15.16,7.58 15.14,7.56 15.12,7.54 15.12,7.52 l 0.02,-0.08 0.04,-0.06 c 0.02,0 0.04,0.04 0.06,0.12 l 0.02,0.12 -0.02,0.1 C 15.22,7.74 15.22,7.76 15.2,7.76 Z M 9.6,7.64 9.64,7.56 C 9.64,7.52 9.64,7.5 9.62,7.5 H 9.6 C 9.58,7.52 9.56,7.56 9.56,7.6 9.56,7.64 9.58,7.64 9.6,7.64 Z M 13.94,7.82 14.02,7.8 14,7.78 H 13.9 L 13.88,7.8 c 0,0.02 0.02,0.02 0.06,0.02 z m 1.36,0.3 C 15.28,8.12 15.28,8.1 15.28,8.08 V 8.04 c 0,-0.04 0.04,-0.08 0.06,-0.08 0.02,0 0.02,0.02 0.02,0.04 v 0.04 c 0,0.04 -0.04,0.08 -0.06,0.08 z M 7.8,8.1 7.84,8.08 V 8.06 C 7.82,8.02 7.78,8 7.76,8 7.74,8 7.72,8.02 7.72,8.04 V 8.06 C 7.72,8.08 7.76,8.1 7.8,8.1 Z M 7.54,8.12 V 8.1 C 7.54,8.08 7.52,8.06 7.48,8.02 H 7.44 L 7.46,8.06 C 7.48,8.1 7.52,8.12 7.54,8.12 Z m 0.44,0.06 c 0,0 0.04,-0.02 0.04,-0.06 L 8.04,8.08 8.02,8.06 c 0,0 -0.04,0.02 -0.04,0.06 L 7.96,8.16 Z m 5.78,0.06 c 0.02,0 0.04,-0.02 0.06,-0.06 V 8.16 c 0,-0.02 -0.02,-0.04 -0.04,-0.04 -0.02,0 -0.04,0.02 -0.04,0.06 0,0.04 0.02,0.06 0.02,0.06 z m 0.56,0.18 c 0.02,0 0.04,-0.06 0.06,-0.12 L 14.4,8.2 14.38,8.14 c 0,-0.02 -0.02,-0.02 -0.04,-0.02 0,0.02 -0.02,0.02 -0.04,0.02 -0.02,0.02 -0.02,0.04 -0.02,0.08 0,0.04 0,0.12 0.04,0.2 z m -6.8,0.04 c 0.04,0 0.06,-0.04 0.06,-0.08 V 8.3 c 0,-0.02 0,-0.04 0.02,-0.04 L 7.66,8.3 7.68,8.28 7.66,8.24 7.6,8.2 C 7.58,8.2 7.56,8.22 7.54,8.24 L 7.48,8.28 7.42,8.26 v 0.1 c 0,0.08 0.02,0.1 0.06,0.1 z m 7.36,0.26 V 8.68 l 0.04,-0.2 c 0.06,-0.12 0.12,-0.18 0.22,-0.18 0.08,0 0.1,0 0.1,0.04 L 15.22,8.42 C 15.2,8.5 15.14,8.56 15.1,8.56 L 15.04,8.54 c -0.02,0 -0.06,0.04 -0.1,0.1 -0.02,0.04 -0.04,0.08 -0.06,0.08 z M 13.52,8.86 13.6,8.82 c 0.04,-0.04 0.08,-0.1 0.08,-0.14 V 8.42 L 13.7,8.34 13.68,8.32 13.66,8.36 13.62,8.4 C 13.6,8.4 13.6,8.4 13.6,8.38 L 13.56,8.32 13.54,8.34 C 13.52,8.36 13.5,8.38 13.5,8.42 v 0.04 c 0,0.04 0.02,0.06 0.06,0.06 L 13.58,8.54 13.5,8.86 Z M 14.82,8.84 14.7,8.8 C 14.62,8.78 14.6,8.76 14.6,8.72 c 0,-0.02 0,-0.06 0.04,-0.08 L 14.66,8.58 14.64,8.5 14.66,8.46 14.7,8.44 14.74,8.46 Z M 14.32,8.6 14.38,8.54 c 0,-0.04 0,-0.06 -0.04,-0.06 -0.04,0 -0.06,0.02 -0.06,0.06 0.02,0.04 0.02,0.06 0.04,0.06 z M 9.4,8.78 9.44,8.74 9.46,8.62 H 9.44 C 9.42,8.62 9.4,8.66 9.4,8.7 L 9.38,8.76 Z M 7.5,8.96 C 7.54,8.96 7.58,8.94 7.64,8.88 7.72,8.8 7.76,8.78 7.76,8.74 L 7.7,8.7 C 7.64,8.68 7.56,8.66 7.5,8.66 H 7.46 C 7.46,8.68 7.5,8.7 7.54,8.72 7.6,8.74 7.62,8.74 7.62,8.76 L 7.48,8.94 c 0,0.02 0.02,0.02 0.02,0.02 z m 6.3,-0.2 c 0,-0.02 0,-0.06 -0.02,-0.08 L 13.76,8.66 c 0,0 -0.02,0.02 -0.02,0.06 0.02,0.02 0.02,0.04 0.04,0.04 z M 7.3,9.02 c 0,0 0.04,-0.04 0.04,-0.06 L 7.36,8.92 7.34,8.9 c 0,0 -0.04,0.02 -0.04,0.06 L 7.28,9 Z m 6.34,0.02 c 0.02,0 0.02,0 0.04,-0.04 L 13.7,8.94 13.68,8.9 h -0.04 c -0.02,0 -0.06,0.04 -0.06,0.08 l 0.02,0.04 c 0,0.02 0.02,0.02 0.04,0.02 z M 13.36,9.12 13.4,9.1 C 13.42,9.08 13.44,9.06 13.44,9.04 V 9 c 0,0 0,-0.02 -0.02,-0.02 H 13.38 C 13.36,9 13.34,9.04 13.34,9.08 Z M 7.76,9.18 7.8,9.16 C 7.82,9.14 7.84,9.1 7.84,9.06 L 7.82,9.04 H 7.78 C 7.76,9.06 7.74,9.1 7.74,9.14 Z M 7.24,9.22 C 7.28,9.2 7.36,9.16 7.44,9.14 7.5,9.12 7.54,9.1 7.54,9.08 H 7.42 c -0.12,0 -0.2,0.02 -0.2,0.08 v 0.06 z m 7.28,0.06 c 0.04,-0.02 0.08,-0.04 0.08,-0.06 0,-0.04 -0.04,-0.06 -0.06,-0.06 -0.04,0 -0.06,0.02 -0.08,0.06 0,0.04 0.02,0.06 0.04,0.06 z M 7.04,9.38 C 7.06,9.38 7.08,9.34 7.08,9.32 7.08,9.28 7.06,9.26 7.02,9.26 7,9.26 6.98,9.28 6.98,9.3 v 0.02 c 0,0.02 0.02,0.06 0.06,0.06 z m 7.06,0 c 0.04,0 0.06,-0.04 0.06,-0.06 0,-0.04 -0.02,-0.06 -0.04,-0.06 l -0.04,0.08 c 0,0.02 0,0.04 0.02,0.04 z M 2.98,9.32 3.02,9.3 V 9.28 L 2.98,9.26 c -0.02,0 -0.04,0 -0.04,0.02 V 9.3 Z M 13.54,9.38 V 9.34 c 0,0 -0.02,-0.04 -0.06,-0.06 L 13.44,9.26 13.46,9.3 c 0.02,0.04 0.06,0.08 0.08,0.08 z M 7.42,9.42 C 7.42,9.4 7.42,9.34 7.4,9.3 L 7.38,9.28 7.36,9.3 7.4,9.42 Z M 7.16,9.5 C 7.18,9.5 7.2,9.48 7.2,9.44 V 9.4 C 7.2,9.36 7.18,9.34 7.16,9.34 H 7.14 C 7.12,9.36 7.1,9.4 7.1,9.44 7.1,9.46 7.14,9.5 7.16,9.5 Z M 7.24,11 c 0.08,0 0.2,-0.1 0.2,-0.22 v -0.04 c 0,-0.04 0.04,-0.14 0.1,-0.22 0.04,-0.06 0.08,-0.14 0.08,-0.18 l 0.02,-0.2 0.02,-0.1 -0.12,0.08 C 7.52,10.12 7.52,10.1 7.52,10.08 7.52,10.04 7.56,10 7.62,9.98 7.68,9.96 7.7,9.94 7.7,9.9 L 7.68,9.72 C 7.68,9.66 7.7,9.58 7.74,9.54 7.8,9.46 7.82,9.4 7.82,9.38 V 9.36 H 7.8 C 7.78,9.36 7.74,9.4 7.68,9.46 7.62,9.54 7.6,9.6 7.6,9.66 L 7.64,9.9 7.54,9.88 c -0.04,0 -0.06,0.02 -0.08,0.08 0,0.08 -0.04,0.12 -0.08,0.12 -0.06,0 -0.12,0.14 -0.12,0.22 v 0.04 c 0,0.02 -0.02,0.04 -0.04,0.04 -0.02,0 -0.04,0.02 -0.04,0.04 v 0.04 c 0,0.1 -0.16,0.18 -0.32,0.18 -0.06,0 -0.08,0.04 -0.08,0.06 0,0.04 0.04,0.1 0.14,0.12 h 0.06 c 0.08,0 0.14,-0.04 0.22,-0.16 0.06,-0.08 0.12,-0.14 0.16,-0.14 l 0.02,0.02 v 0.04 c 0,0.04 -0.02,0.1 -0.04,0.12 -0.04,0.06 -0.06,0.12 -0.06,0.16 0,0.04 -0.04,0.06 -0.1,0.06 -0.04,0 -0.06,0 -0.06,0.02 z M 9.28,9.48 V 9.46 L 9.26,9.4 c 0,-0.02 0,-0.02 -0.02,-0.02 V 9.44 L 9.26,9.48 Z M 6.86,9.5 C 6.88,9.5 6.88,9.48 6.88,9.46 L 6.8,9.4 6.76,9.38 6.78,9.42 Z m 7.58,0.24 C 14.42,9.74 14.4,9.7 14.4,9.64 l 0.04,-0.08 c 0.02,0 0.04,0.04 0.04,0.08 0,0.06 -0.02,0.1 -0.04,0.1 z M 6.98,9.72 7.06,9.62 7.04,9.58 C 7.02,9.58 7,9.6 6.98,9.66 Z m 6.14,0.36 -0.04,-0.12 0.06,-0.18 c 0,-0.08 -0.06,-0.16 -0.12,-0.16 -0.02,0 -0.04,0 -0.04,0.02 L 13,9.74 12.96,9.82 c -0.04,0 -0.06,0.02 -0.06,0.04 l 0.08,0.1 z M 7.32,9.72 7.36,9.68 7.32,9.64 V 9.62 C 7.3,9.62 7.3,9.64 7.3,9.66 c 0,0.04 0,0.06 0.02,0.06 z M 13.44,9.9 13.42,9.84 C 13.38,9.82 13.34,9.8 13.3,9.8 h -0.02 c 0,0.02 0.02,0.02 0.04,0.04 z m 1.06,0.08 c -0.02,0 -0.04,-0.04 -0.04,-0.06 0,-0.04 0.02,-0.06 0.06,-0.06 0.02,0 0.02,0 0.02,0.02 v 0.04 z m -1.2,0.1 c 0.04,0 0.06,-0.02 0.06,-0.06 l -0.04,-0.06 -0.06,0.06 c 0,0.04 0,0.06 0.04,0.06 z m -6.94,0 L 6.38,10.04 6.36,9.98 H 6.34 v 0.04 c 0,0.04 0,0.06 0.02,0.06 z M 9,10.6 c 0.14,-0.02 0.16,-0.04 0.16,-0.18 v -0.04 c 0,-0.08 0.02,-0.14 0.06,-0.18 L 9.26,10.16 9.22,10.06 9.16,10 c -0.02,0.02 -0.02,0.06 -0.02,0.14 -0.02,0.14 -0.04,0.18 -0.12,0.18 -0.06,0 -0.08,0.02 -0.08,0.06 l 0.02,0.1 c 0,0.02 -0.02,0.02 -0.06,0.02 -0.04,0 -0.08,0.02 -0.08,0.04 v 0.02 c 0,0.02 0.04,0.04 0.1,0.04 z M 7.08,10.18 C 7.1,10.16 7.12,10.12 7.12,10.08 L 7.1,10.04 7.06,10.06 c -0.02,0.02 -0.04,0.06 -0.04,0.1 0,0.02 0.02,0.02 0.04,0.02 z m 7.12,0.32 0.06,-0.26 c 0,-0.04 -0.02,-0.08 -0.06,-0.1 -0.02,-0.02 -0.04,-0.02 -0.04,-0.04 h 0.02 c 0.02,-0.02 0.1,-0.02 0.14,-0.04 0.06,0 0.1,0 0.1,0.04 v 0.02 c 0,0.02 -0.02,0.04 -0.04,0.04 l -0.04,0.02 v 0.06 L 14.3,10.4 c -0.04,0.06 -0.08,0.1 -0.1,0.1 z m -0.68,-0.3 0.04,-0.08 c 0,-0.02 0,-0.04 -0.02,-0.04 -0.04,0 -0.06,0.04 -0.06,0.06 0,0.04 0.02,0.06 0.04,0.06 z M 1.62,10.14 1.66,10.12 V 10.1 H 1.58 v 0.02 z m 7.76,0 0.04,-0.02 V 10.1 H 9.34 v 0.02 z M 6.96,10.24 6.98,10.2 6.94,10.16 c -0.02,0 -0.02,0 -0.02,0.02 v 0.02 l 0.02,0.04 z m -0.24,0.08 c 0.02,0 0.04,-0.02 0.06,-0.08 0,-0.04 0,-0.08 -0.02,-0.08 L 6.74,10.18 6.7,10.26 c 0,0.04 0,0.06 0.02,0.06 z m 0.72,0.12 C 7.42,10.44 7.38,10.4 7.38,10.32 V 10.2 c 0.02,0 0.04,0.06 0.08,0.12 l 0.02,0.08 c 0,0.02 -0.02,0.04 -0.04,0.04 z m 5.76,0 0.02,-0.04 c 0,-0.06 -0.02,-0.12 -0.06,-0.16 -0.02,-0.02 -0.04,-0.02 -0.06,-0.02 v 0.04 c 0,0.02 -0.02,0.04 -0.04,0.04 L 13,10.28 l 0.02,0.04 c 0.02,0.02 0.04,0.04 0.06,0.04 h 0.06 c 0.02,0 0.02,0.02 0.04,0.04 0,0.02 0,0.04 0.02,0.04 z M 5.86,10.42 V 10.4 L 5.84,10.34 c -0.02,0 -0.02,0 -0.02,0.02 v 0.02 l 0.02,0.04 z m 6.96,0.06 0.02,-0.04 -0.02,-0.06 C 12.8,10.36 12.8,10.34 12.78,10.34 l 0.02,0.14 z m 0.6,-0.04 c 0.02,0 0.04,0 0.04,-0.02 0,-0.02 -0.04,-0.04 -0.1,-0.06 l -0.02,-0.02 -0.04,0.02 0.02,0.02 c 0.02,0.04 0.08,0.06 0.1,0.06 z M 6.5,10.66 c 0.06,0 0.1,-0.04 0.12,-0.1 l 0.02,-0.08 c 0,-0.02 -0.02,-0.04 -0.04,-0.04 -0.02,0 -0.04,0.04 -0.04,0.06 L 6.54,10.54 H 6.48 L 6.4,10.58 6.38,10.62 c 0,0.04 0.02,0.04 0.08,0.04 z M 6.08,10.62 6.12,10.58 6.16,10.5 6.14,10.46 C 6.12,10.48 6.1,10.5 6.1,10.54 Z m 7.44,1.56 c -0.02,0 -0.04,0 -0.04,-0.02 l 0.1,-0.22 c 0,-0.02 -0.02,-0.04 -0.06,-0.04 l -0.1,0.02 c -0.12,0 -0.16,0 -0.16,-0.06 0,-0.04 0.06,-0.06 0.1,-0.06 h 0.02 c 0.04,0 0.12,-0.06 0.18,-0.12 0.06,-0.1 0.14,-0.16 0.18,-0.16 0.04,0 0.08,-0.06 0.08,-0.12 v -0.04 c 0,-0.08 -0.06,-0.1 -0.24,-0.1 -0.02,0 -0.04,-0.02 -0.04,-0.06 l 0.02,-0.14 c 0.02,-0.1 0.04,-0.2 0.08,-0.2 l 0.02,0.04 -0.04,0.2 c 0,0.06 0.04,0.1 0.08,0.1 l 0.08,-0.06 c 0.02,-0.06 0.08,-0.1 0.12,-0.1 0.06,0 0.12,-0.16 0.12,-0.24 0,-0.04 0,-0.06 -0.02,-0.06 -0.02,0 -0.02,-0.02 -0.02,-0.04 L 14,10.6 c 0.04,-0.04 0.04,-0.06 0.06,-0.06 0.02,0 0.02,0.06 0.02,0.16 v 0.08 c 0,0.1 -0.02,0.24 -0.06,0.34 -0.34,0.86 -0.44,1.06 -0.5,1.06 z m -0.2,-1.5 c 0.04,0 0.06,-0.02 0.08,-0.06 0,-0.02 -0.02,-0.06 -0.06,-0.08 H 13.3 c -0.02,0 -0.04,0.02 -0.04,0.04 v 0.02 c 0,0.06 0.04,0.08 0.06,0.08 z m 0.5,0 c -0.02,0 -0.04,0 -0.04,-0.02 v -0.02 h 0.08 v 0.02 c 0,0.02 -0.02,0.02 -0.04,0.02 z M 13,10.8 c 0.02,0 0.04,-0.02 0.04,-0.04 v -0.02 c 0,-0.04 -0.02,-0.06 -0.06,-0.06 -0.02,0 -0.04,0.02 -0.04,0.06 0,0.04 0.02,0.06 0.06,0.06 z M 2.86,11.06 C 2.88,11.04 2.9,11.02 2.9,10.98 v -0.04 c 0,-0.04 -0.02,-0.08 -0.06,-0.08 -0.02,0 -0.04,0.06 -0.04,0.12 0,0.06 0.02,0.08 0.04,0.08 z M 7.04,11.02 7.06,10.98 7.02,10.9 C 7,10.88 6.98,10.88 6.96,10.88 c -0.02,0 -0.02,0 -0.02,0.02 0.02,0.06 0.06,0.12 0.1,0.12 z M 6.76,10.98 c 0.02,0 0.04,-0.02 0.04,-0.06 V 10.9 c 0,0 -0.02,-0.02 -0.06,-0.02 L 6.7,10.9 v 0.02 c 0.02,0.04 0.04,0.06 0.06,0.06 z m 2.7,0.06 -0.04,-0.06 0.02,-0.04 h 0.02 c 0.02,0.02 0.02,0.06 0.02,0.08 z m -2.84,0.22 0.04,-0.02 0.02,-0.06 c 0,-0.04 -0.02,-0.06 -0.06,-0.1 -0.06,-0.06 -0.14,-0.1 -0.18,-0.1 -0.02,0 -0.04,0 -0.04,0.02 l 0.04,0.02 c 0.04,0.02 0.06,0.02 0.06,0.04 l -0.08,0.08 c 0,0.02 0.02,0.02 0.06,0.02 0.06,0 0.1,0.04 0.12,0.06 0,0.04 0,0.04 0.02,0.04 z m 6.1,0.04 c 0.02,-0.02 0.04,-0.04 0.04,-0.06 l -0.04,-0.1 c 0,-0.02 0,-0.04 0.02,-0.04 0.04,0 0.06,-0.04 0.06,-0.06 0,-0.04 0,-0.04 -0.02,-0.04 -0.02,0 -0.04,0.02 -0.06,0.04 -0.04,0.04 -0.06,0.12 -0.06,0.18 0,0.06 0.02,0.08 0.04,0.08 z M 7.4,11.16 c 0,0 0.04,-0.02 0.04,-0.06 L 7.46,11.06 7.44,11.04 c 0,0 -0.04,0.02 -0.04,0.06 L 7.38,11.14 Z M 6.28,11.2 C 6.3,11.18 6.34,11.14 6.34,11.1 V 11.04 L 6.3,11.1 C 6.28,11.14 6.26,11.16 6.24,11.16 L 6.18,11.1 6.1,11.06 H 6.08 v 0.02 c 0,0.06 0.1,0.12 0.18,0.12 z M 2.7,11.2 2.68,11.18 2.6,11.16 c -0.02,0 -0.06,0 -0.08,0.02 v 0.02 z m 3.72,1.58 c 0.02,0 0.04,-0.02 0.06,-0.08 C 6.5,12.66 6.52,12.64 6.52,12.6 6.52,12.56 6.5,12.52 6.46,12.48 6.44,12.44 6.42,12.4 6.42,12.36 c 0,-0.04 0.02,-0.06 0.06,-0.12 0.06,-0.08 0.16,-0.12 0.2,-0.12 0.04,0 0.08,-0.04 0.08,-0.1 V 12 c 0,-0.04 0.02,-0.06 0.06,-0.08 0.04,-0.02 0.06,-0.1 0.06,-0.14 L 6.84,11.54 c 0,-0.1 0.04,-0.14 0.1,-0.14 0.04,0 0.06,0.02 0.06,0.08 v 0.14 c 0.02,0 0.04,-0.02 0.08,-0.1 0.04,-0.06 0.08,-0.1 0.12,-0.1 L 7.28,11.44 7.22,11.22 C 7.2,11.2 7.12,11.18 7.04,11.18 H 6.96 c -0.04,0 -0.08,0 -0.08,0.02 0,0.04 -0.06,0.14 -0.14,0.26 -0.08,0.12 -0.12,0.2 -0.12,0.28 l 0.02,0.14 c 0,0.02 0,0.02 -0.02,0.02 L 6.54,11.86 c -0.04,0 -0.08,0.06 -0.12,0.22 -0.04,0.14 -0.1,0.28 -0.14,0.28 H 6.24 l 0.04,0.04 c 0.04,0.02 0.1,0.14 0.1,0.24 z m 5.96,-1.4 -0.02,-0.12 c 0,-0.02 -0.02,-0.02 -0.02,-0.02 v 0.06 l 0.02,0.08 z M 7.04,11.4 C 7.02,11.4 7,11.38 7,11.34 7,11.3 7.02,11.28 7.06,11.28 c 0.02,0 0.02,0 0.02,0.02 v 0.04 z M 2.1,11.38 2.12,11.34 2.1,11.3 c -0.02,0 -0.02,-0.02 -0.02,-0.02 -0.02,0 -0.02,0.02 -0.02,0.06 l 0.02,0.04 z m 0.64,0.1 c 0.08,0 0.12,-0.04 0.12,-0.08 -0.02,-0.04 -0.06,-0.06 -0.12,-0.06 -0.08,0 -0.12,0.02 -0.12,0.06 0,0.04 0.04,0.06 0.08,0.08 z M 13.52,11.4 13.48,11.38 v -0.02 l 0.04,-0.02 0.04,0.02 v 0.02 z m 0.18,0 -0.04,-0.02 0.02,-0.04 0.04,0.02 0.02,0.02 z M 2.5,11.52 2.56,11.46 c 0,-0.04 0,-0.06 -0.04,-0.06 -0.04,0 -0.06,0.02 -0.06,0.06 0.02,0.02 0.02,0.06 0.04,0.06 z m 3.68,0 c 0.02,0 0.04,-0.02 0.04,-0.04 v -0.02 c 0,-0.04 -0.02,-0.06 -0.06,-0.06 -0.02,0 -0.04,0.02 -0.04,0.06 0,0.02 0.04,0.06 0.06,0.06 z m 0.14,0.1 0.24,-0.06 C 6.56,11.54 6.52,11.52 6.46,11.48 6.42,11.44 6.4,11.44 6.36,11.44 L 6.3,11.52 6.28,11.58 c 0,0.02 0.02,0.04 0.04,0.04 z M 9.04,11.52 9.08,11.5 V 11.48 L 9.04,11.46 9,11.48 v 0.02 z m 3.92,0.12 c 0.02,0 0.02,-0.04 0.02,-0.06 0,-0.04 -0.04,-0.06 -0.06,-0.06 l -0.04,0.02 z M 8.7,11.8 c 0.02,0 0.04,-0.02 0.06,-0.08 0.04,-0.06 0.06,-0.14 0.06,-0.18 H 8.8 L 8.74,11.6 C 8.7,11.66 8.68,11.74 8.68,11.78 Z m 4.66,-0.06 -0.04,-0.02 v -0.04 c 0,-0.06 0.06,-0.14 0.1,-0.14 h 0.06 v 0.02 c 0,0.04 -0.02,0.08 -0.04,0.12 -0.02,0.04 -0.06,0.06 -0.08,0.06 z m -7.34,0.08 c 0.02,0 0.04,-0.06 0.08,-0.12 l 0.02,-0.08 c 0,-0.02 -0.02,-0.04 -0.04,-0.04 -0.02,0 -0.06,0.04 -0.06,0.12 z M 7.06,11.76 7.1,11.74 7.08,11.72 c 0,-0.02 -0.02,-0.02 -0.04,-0.02 0,0 -0.02,0 -0.02,0.02 v 0.02 z M 6.3,11.8 6.32,11.76 6.3,11.72 C 6.3,11.7 6.28,11.7 6.28,11.7 c -0.02,0 -0.02,0.02 -0.02,0.06 0.02,0.02 0.02,0.04 0.04,0.04 z m 0.5,0.08 c -0.04,0 -0.08,-0.04 -0.1,-0.06 V 11.8 c 0,-0.02 0.02,-0.04 0.04,-0.04 0.04,0 0.1,0.02 0.1,0.06 0,0.02 -0.02,0.06 -0.04,0.06 z m 5.3,0.3 c 0.04,0 0.08,-0.06 0.08,-0.1 C 12.2,12.04 12.24,12 12.3,12 h 0.04 c 0.02,0 0.04,-0.02 0.06,-0.04 0,-0.04 -0.02,-0.06 -0.08,-0.06 -0.06,0.02 -0.12,0.02 -0.14,0.02 -0.04,0.02 -0.1,0.16 -0.1,0.22 0,0.02 0,0.04 0.02,0.04 z M 5.74,12.16 V 12.12 L 5.72,12.06 c -0.02,0 -0.02,0 -0.02,0.02 v 0.04 l 0.02,0.04 z m 0.32,0.06 0.08,-0.1 -0.02,-0.04 c -0.02,0 -0.04,0.04 -0.06,0.08 z M 5.8,12.28 c 0,0 0.04,-0.02 0.04,-0.04 L 5.86,12.2 5.84,12.18 c 0,0 -0.04,0.02 -0.04,0.06 l -0.02,0.02 z m 0.92,0.18 c 0.02,0 0.02,-0.02 0.02,-0.06 V 12.34 C 6.72,12.3 6.72,12.26 6.7,12.26 H 6.66 l -0.02,0.06 0.02,0.06 c 0.02,0.06 0.04,0.08 0.06,0.08 z m 5.92,-0.06 c 0.02,0 0.04,0 0.04,-0.02 V 12.36 H 12.6 v 0.02 c 0,0.02 0.02,0.02 0.04,0.02 z m 0.2,0.06 0.02,-0.02 -0.02,-0.08 H 12.82 L 12.8,12.4 c 0.02,0.04 0.02,0.06 0.04,0.06 z m -0.36,0.04 c 0.02,-0.02 0.04,-0.04 0.04,-0.06 V 12.4 c 0,-0.02 0,-0.02 -0.02,-0.02 l -0.02,-0.02 -0.02,0.02 c -0.02,0.02 -0.04,0.06 -0.04,0.1 0,0.02 0.02,0.02 0.04,0.02 z m 0.88,0.02 c -0.02,0 -0.02,-0.02 -0.02,-0.06 0.02,-0.02 0.04,-0.06 0.06,-0.06 l 0.02,0.02 -0.02,0.04 c 0,0.04 -0.04,0.06 -0.04,0.06 z m -1.28,-0.06 c 0.02,0 0.04,0 0.04,-0.02 v -0.02 h -0.08 v 0.02 c 0,0.02 0.02,0.02 0.04,0.02 z M 6.1,12.82 c 0.02,0 0.08,-0.02 0.12,-0.06 0.02,-0.04 0.04,-0.1 0.04,-0.14 0,-0.06 -0.02,-0.1 -0.06,-0.1 -0.02,0 -0.04,0.04 -0.04,0.08 v 0.04 c 0,0.06 -0.02,0.12 -0.06,0.14 L 6.08,12.8 c 0,0.02 0,0.02 0.02,0.02 z m 6.54,0.46 c 0.02,-0.02 0.04,-0.08 0.04,-0.14 -0.02,-0.06 -0.06,-0.12 -0.12,-0.18 l -0.08,-0.06 0.08,-0.02 c 0.08,0 0.16,-0.06 0.2,-0.14 0.04,-0.08 0.06,-0.14 0.06,-0.18 0,-0.02 -0.02,-0.04 -0.08,-0.04 -0.04,0 -0.08,0.04 -0.08,0.1 v 0.04 c 0,0.02 -0.02,0.04 -0.04,0.04 -0.04,0 -0.04,-0.02 -0.04,-0.06 L 12.6,12.6 h -0.02 c -0.02,0 -0.06,0.02 -0.1,0.08 l -0.04,0.08 v 0.04 l -0.04,0.02 c -0.08,0 -0.12,0.04 -0.12,0.1 0,0.04 0.02,0.08 0.06,0.14 l 0.08,0.04 c 0.02,0 0.02,0 0.02,-0.02 0,-0.04 0.02,-0.08 0.06,-0.08 0.02,0 0.06,0.04 0.06,0.08 0,0.14 0.02,0.2 0.06,0.2 z m 0.3,-0.7 c 0.02,0 0.04,0 0.04,-0.02 V 12.54 H 12.9 v 0.02 c 0,0.02 0.02,0.02 0.04,0.02 z m -0.9,0.12 c 0.06,0 0.1,-0.02 0.1,-0.04 v -0.02 c -0.02,-0.02 -0.08,-0.06 -0.12,-0.06 -0.04,0 -0.1,0.04 -0.1,0.06 v 0.02 c 0,0.02 0.04,0.04 0.12,0.04 z M 5.14,12.64 5.18,12.62 V 12.6 H 5.1 v 0.02 c 0,0.02 0.02,0.02 0.04,0.02 z m 7.16,0.12 c 0.02,0 0.04,0 0.04,-0.02 0,-0.02 -0.02,-0.04 -0.06,-0.06 l -0.02,-0.02 -0.02,0.02 c 0,0 -0.02,0 -0.02,0.02 0.02,0.04 0.04,0.06 0.08,0.06 z M 1.1,12.88 1.18,12.8 1.2,12.72 1.18,12.7 c -0.04,0 -0.08,0.04 -0.08,0.1 l -0.02,0.06 z m 10.82,0.06 c 0.02,0 0.04,-0.02 0.04,-0.04 v -0.02 c 0,-0.02 -0.02,-0.06 -0.06,-0.06 -0.02,0 -0.04,0.04 -0.04,0.06 0,0.04 0.04,0.06 0.06,0.06 z M 6.04,13 6.1,12.98 C 6.14,12.94 6.16,12.94 6.16,12.92 V 12.9 H 6.12 c -0.02,0 -0.04,0.02 -0.06,0.04 z M 5.8,13 5.84,12.98 V 12.96 L 5.8,12.94 5.76,12.96 v 0.02 z M 5,13.06 c 0.04,0 0.06,-0.02 0.06,-0.02 v -0.02 h -0.1 l -0.02,0.02 c 0,0.02 0.02,0.02 0.06,0.02 z m 6.98,0.1 0.02,-0.04 -0.02,-0.04 h -0.02 c -0.02,0 -0.02,0.02 -0.02,0.04 l 0.02,0.04 z m 0.34,0.08 0.02,-0.04 c 0,-0.02 -0.02,-0.06 -0.06,-0.08 l -0.04,-0.04 c -0.02,0 -0.02,0 -0.02,0.02 0.02,0.06 0.06,0.14 0.1,0.14 z m -6.96,0 c 0,0 0.04,-0.02 0.04,-0.06 L 5.42,13.14 5.4,13.12 c 0,0 -0.04,0.04 -0.04,0.06 l -0.02,0.04 z m 7.6,0 c 0.04,0 0.06,-0.02 0.06,-0.06 0,-0.02 -0.04,-0.06 -0.06,-0.06 -0.04,0 -0.06,0.04 -0.06,0.06 0.02,0.04 0.04,0.06 0.06,0.06 z M 6.28,13.18 6.24,13.16 v -0.02 l 0.04,-0.02 0.04,0.02 v 0.02 z m -4.14,0.18 c 0.02,0 0.06,-0.04 0.08,-0.1 V 13.2 c -0.02,0 -0.02,0.02 -0.06,0.04 l -0.08,0.1 c 0,0.02 0.02,0.02 0.06,0.02 z m 3.4,0.06 c 0.04,0 0.08,-0.02 0.08,-0.04 v -0.02 c 0,-0.02 -0.02,-0.06 -0.06,-0.06 -0.02,0 -0.06,0.04 -0.08,0.06 0,0.04 0.02,0.06 0.06,0.06 z m 6.58,0 c 0.02,0 0.04,-0.02 0.06,-0.06 0,-0.02 0,-0.06 -0.04,-0.06 -0.04,0 -0.06,0.04 -0.06,0.06 0.02,0.04 0.02,0.06 0.04,0.06 z M 2.42,13.4 c 0,-0.02 0,-0.06 -0.02,-0.08 H 2.38 l -0.02,0.04 c 0.02,0.02 0.02,0.04 0.04,0.04 z m 3.9,0.14 C 6.3,13.54 6.26,13.5 6.22,13.46 6.2,13.42 6.16,13.4 6.12,13.4 H 6.06 c -0.02,0 -0.04,0 -0.04,-0.02 0,-0.04 0.1,-0.06 0.24,-0.06 0.1,0 0.18,0 0.18,0.02 H 6.42 c -0.04,0.02 -0.06,0.08 -0.06,0.12 v 0.02 c 0,0.04 -0.02,0.06 -0.04,0.06 z m 6.5,0.18 0.06,-0.08 c 0.04,-0.04 0.06,-0.08 0.06,-0.1 v -0.02 h -0.02 c -0.02,0 -0.04,0.04 -0.06,0.1 z M 12.1,13.66 12.14,13.6 v -0.04 c 0,-0.02 0,-0.02 -0.02,-0.02 -0.04,0 -0.06,0.02 -0.06,0.06 0,0.04 0.02,0.06 0.04,0.06 z m 0.2,-0.06 0.08,-0.02 v -0.02 h -0.12 l -0.02,0.02 c 0,0.02 0.02,0.02 0.06,0.02 z m -6.9,0.22 c 0.02,0 0.04,-0.02 0.06,-0.04 0.02,-0.04 0.02,-0.1 0.02,-0.1 L 5.44,13.66 c -0.04,0 -0.08,0.04 -0.08,0.1 z M 2.02,13.78 c 0.04,0 0.06,-0.02 0.06,-0.06 0,-0.04 -0.04,-0.06 -0.06,-0.06 -0.04,0 -0.06,0.02 -0.06,0.06 0,0.04 0.04,0.06 0.06,0.06 z m 10.8,0.06 c 0.02,0 0.02,0 0.02,-0.02 L 12.8,13.76 C 12.76,13.72 12.72,13.7 12.7,13.7 v 0.02 c 0,0.04 0.06,0.12 0.12,0.12 z M 5.04,13.9 c 0.02,0 0.04,-0.02 0.08,-0.08 L 5.16,13.76 5.12,13.74 C 5.1,13.76 5.08,13.76 5.06,13.76 5.02,13.78 4.98,13.8 4.98,13.82 v 0.02 z m 7.04,0 v -0.06 c 0,-0.04 -0.02,-0.06 -0.06,-0.06 -0.02,0 -0.02,0 -0.02,0.02 v 0.04 c 0.02,0.04 0.06,0.06 0.08,0.06 z m -7.28,0 c 0.02,0 0.04,0 0.04,-0.02 L 4.82,13.86 c 0,-0.02 -0.02,-0.02 -0.04,-0.02 0,0 -0.02,0 -0.02,0.02 v 0.02 z m 7.44,0.7 c 0.04,0 0.08,-0.06 0.12,-0.18 0.04,-0.08 0.06,-0.18 0.06,-0.28 0,-0.1 -0.04,-0.18 -0.08,-0.2 H 12.3 c -0.02,0 -0.04,0.02 -0.04,0.04 l 0.04,0.1 c 0.02,0.06 0.04,0.1 0.04,0.14 0,0.04 -0.02,0.06 -0.04,0.06 -0.02,0 -0.04,0 -0.06,-0.04 l -0.02,-0.02 -0.02,0.02 0.02,0.1 c 0.02,0.04 0.02,0.08 0.02,0.12 0,0.02 0,0.02 -0.02,0.02 -0.02,0 -0.06,-0.02 -0.1,-0.06 l -0.06,-0.04 0.04,0.1 c 0.06,0.08 0.1,0.12 0.14,0.12 z m 0.24,-0.12 c 0.04,0 0.14,-0.12 0.18,-0.26 0.04,-0.12 0.04,-0.24 0.04,-0.26 -0.02,0 -0.02,0 -0.02,0.02 V 14 c 0,0.04 -0.04,0.08 -0.06,0.08 -0.08,0 -0.18,0.26 -0.18,0.36 0,0.04 0.02,0.04 0.04,0.04 z m -0.5,-0.28 c 0.04,0 0.12,-0.04 0.14,-0.08 l 0.04,-0.06 -0.04,-0.02 -0.06,0.02 c -0.08,0.02 -0.14,0.08 -0.14,0.1 0,0.02 0.02,0.04 0.06,0.04 z m -9.7,0.06 c 0.02,0 0.04,-0.02 0.06,-0.06 v -0.06 c -0.02,0 -0.04,0.02 -0.06,0.06 l -0.02,0.04 z m 2.6,0.06 c 0,0 0.04,-0.04 0.04,-0.06 v -0.04 c 0,-0.02 0,-0.02 -0.02,-0.02 -0.04,0 -0.06,0.02 -0.06,0.06 0,0.02 0.02,0.06 0.04,0.06 z m 0.66,0.22 c 0.08,0 0.16,-0.02 0.18,-0.06 l 0.04,-0.1 c 0,-0.04 -0.04,-0.06 -0.1,-0.06 -0.04,0 -0.08,0.02 -0.08,0.06 V 14.4 L 5.48,14.36 C 5.44,14.32 5.4,14.32 5.36,14.32 c -0.02,0 -0.04,0 -0.06,0.04 l -0.04,0.08 c 0,0.02 0.02,0.02 0.04,0.04 0.06,0.04 0.16,0.06 0.24,0.06 z m -0.78,0.02 c 0.04,0 0.06,-0.04 0.06,-0.06 0,-0.04 -0.06,-0.1 -0.1,-0.1 -0.02,0 -0.02,0.02 -0.02,0.06 0,0.06 0.04,0.1 0.06,0.1 z m 7.2,0.1 v -0.1 c -0.02,-0.04 -0.02,-0.08 -0.04,-0.08 -0.02,0 -0.06,0 -0.1,0.04 -0.06,0.02 -0.1,0.04 -0.1,0.06 z m -10.1,0.08 c 0.04,0 0.08,-0.04 0.08,-0.08 L 1.96,14.6 1.94,14.58 c -0.02,0 -0.06,0.02 -0.08,0.06 -0.02,0.02 -0.02,0.06 -0.02,0.08 0,0 0,0.02 0.02,0.02 z m 2.66,0 c 0.02,0 0.04,-0.04 0.06,-0.06 L 4.6,14.64 4.58,14.62 c -0.02,0 -0.04,0.02 -0.06,0.06 z M 4.44,14.72 c 0,-0.02 0,-0.06 -0.02,-0.08 0,-0.02 -0.02,-0.02 -0.02,-0.02 0,0 -0.02,0.02 -0.02,0.06 0.02,0.02 0.02,0.04 0.04,0.04 z m 0.12,0.24 c 0.02,0 0.06,-0.06 0.14,-0.18 l 0.06,-0.16 -0.1,0.08 c -0.08,0.08 -0.14,0.16 -0.14,0.2 0,0.04 0.02,0.06 0.04,0.06 z m 0.96,-0.1 c 0.04,0 0.06,-0.06 0.08,-0.1 0,-0.04 0,-0.08 -0.02,-0.08 H 5.56 c -0.04,0.02 -0.08,0.08 -0.08,0.14 0,0.02 0,0.04 0.04,0.04 z m 6.22,0 c 0,0 0.04,-0.04 0.04,-0.06 l 0.02,-0.04 -0.02,-0.02 c 0,0 -0.04,0.02 -0.04,0.06 l -0.02,0.04 z m 0.1,0.04 c 0.02,0 0.02,-0.02 0.04,-0.04 l 0.04,-0.08 V 14.76 H 11.9 c -0.02,0 -0.04,0.04 -0.04,0.08 z m -6.92,0.02 c 0.04,0 0.06,-0.04 0.06,-0.06 C 4.96,14.82 4.96,14.8 4.94,14.8 c -0.02,0 -0.04,0.02 -0.06,0.06 0,0.02 0,0.06 0.04,0.06 z m 6.78,0.22 c 0.02,0 0.02,-0.04 0.02,-0.08 0,-0.06 -0.02,-0.12 -0.04,-0.16 -0.02,-0.02 -0.04,-0.02 -0.06,-0.02 -0.02,0 -0.04,0.02 -0.04,0.04 l -0.02,0.04 0.06,-0.02 c 0.04,0 0.06,0.04 0.06,0.1 z m 0.58,-0.04 0.04,-0.06 V 15 c 0,-0.02 0,-0.02 -0.02,-0.02 -0.04,0 -0.06,0.02 -0.06,0.06 0,0.02 0.02,0.06 0.04,0.06 z M 11.84,15.08 V 15.04 L 11.82,15 c 0,-0.02 0,-0.02 -0.02,-0.02 v 0.06 l 0.02,0.04 z m -0.02,0.3 0.04,-0.04 c 0,-0.04 -0.02,-0.08 -0.06,-0.1 h -0.04 c -0.02,0 -0.02,0 -0.02,0.02 v 0.04 c 0.04,0.06 0.06,0.08 0.08,0.08 z m -0.64,0 0.02,-0.02 -0.02,-0.08 c -0.02,0 -0.02,0 -0.02,0.02 v 0.02 c 0,0.04 0,0.06 0.02,0.06 z m -9.46,0.36 c 0.02,0 0.04,-0.04 0.04,-0.08 0,-0.06 -0.04,-0.1 -0.06,-0.1 -0.04,0 -0.06,0.04 -0.06,0.1 0.02,0.04 0.04,0.08 0.08,0.08 z M 4.1,16.02 4.12,16 4.14,15.92 4.12,15.86 C 4.08,15.82 4.04,15.8 4.02,15.8 L 4,15.84 4.02,15.92 c 0.02,0.06 0.04,0.1 0.08,0.1 z M 4.88,15.92 4.84,15.9 v -0.02 l 0.04,-0.02 0.04,0.02 v 0.02 z m 6.32,0.18 0.04,-0.06 c 0.02,-0.04 0.04,-0.1 0.04,-0.14 0,0 0,-0.02 -0.02,-0.02 l -0.04,0.02 c -0.02,0.02 -0.04,0.08 -0.04,0.14 z m 0.2,-0.12 0.04,-0.02 v -0.02 l -0.04,-0.02 -0.04,0.02 v 0.02 z m 0.02,0.24 c 0.02,0 0.04,-0.02 0.1,-0.08 0.02,-0.04 0.04,-0.08 0.04,-0.12 v -0.04 h -0.02 c -0.02,0 -0.06,0.04 -0.08,0.1 L 11.4,16.2 c 0,0.02 0,0.02 0.02,0.02 z M 4.9,16.04 4.86,16.02 4.88,15.98 4.92,16 4.94,16.02 c 0,0.02 -0.02,0.02 -0.04,0.02 z m 5.96,0.12 0.04,-0.02 v -0.02 l -0.04,-0.02 -0.04,0.02 v 0.02 z m 0.88,0.04 0.02,-0.04 -0.02,-0.04 h -0.02 c 0,0 -0.02,0 -0.02,0.04 0.02,0.02 0.02,0.04 0.04,0.04 z m -7.86,0.26 c 0.04,0 0.06,-0.02 0.06,-0.06 C 3.92,16.38 3.9,16.34 3.86,16.32 3.86,16.3 3.84,16.3 3.84,16.3 c -0.02,0 -0.02,0 -0.02,0.02 v 0.04 c 0,0.06 0.04,0.1 0.06,0.1 z m 7.14,0 0.04,-0.02 -0.02,-0.04 c -0.02,-0.04 -0.08,-0.06 -0.1,-0.06 l -0.04,0.02 0.02,0.04 c 0.02,0.04 0.08,0.06 0.1,0.06 z m -6.6,0.06 0.04,-0.04 0.02,-0.12 H 4.46 c -0.02,0 -0.04,0.04 -0.04,0.08 L 4.4,16.5 Z m 6.7,0.1 0.02,-0.02 c 0.04,-0.02 0.06,-0.06 0.06,-0.08 -0.02,-0.02 -0.02,-0.04 -0.04,-0.04 0,0 -0.02,0 -0.02,0.02 -0.04,0.02 -0.06,0.06 -0.06,0.08 z M 4.46,16.68 V 16.66 L 4.44,16.6 H 4.42 v 0.04 l 0.02,0.04 z M 3.8,16.7 3.84,16.68 V 16.66 L 3.8,16.64 c -0.02,0 -0.04,0 -0.04,0.02 v 0.02 z m 0.32,0.1 c 0.04,0 0.06,-0.02 0.06,-0.04 V 16.74 C 4.16,16.68 4.12,16.66 4.08,16.66 H 4.06 c -0.02,0 -0.04,0.02 -0.04,0.06 0.02,0.04 0.06,0.08 0.1,0.08 z M 1.68,16.88 1.72,16.86 V 16.84 L 1.68,16.82 1.64,16.84 v 0.02 z M 1.16,16.92 1.18,16.88 1.14,16.82 c -0.02,0 -0.02,0.02 -0.02,0.06 0.02,0.02 0.02,0.04 0.04,0.04 z m 3.16,0 V 16.9 L 4.3,16.84 c 0,0 0,-0.02 -0.02,-0.02 v 0.06 l 0.02,0.04 z m 6.58,0.02 0.04,-0.02 V 16.9 L 10.9,16.88 10.86,16.9 v 0.02 z M 4.5,17.06 4.52,17.02 4.44,16.96 4.4,16.94 4.42,16.98 c 0.02,0.04 0.06,0.08 0.08,0.08 z m 6.2,0.16 0.02,-0.04 -0.04,-0.04 v -0.02 c -0.02,0 -0.02,0.02 -0.02,0.06 l 0.02,0.04 z m 0.64,0.02 c 0.02,0 0.04,0 0.04,-0.02 L 11.36,17.2 c 0,-0.02 -0.02,-0.02 -0.04,-0.02 0,0 -0.02,0 -0.02,0.02 v 0.02 z M 3.46,17.36 3.52,17.3 c 0,-0.04 0,-0.06 -0.04,-0.06 -0.04,0 -0.06,0.02 -0.06,0.06 z m 7.38,0.06 c 0.04,0 0.04,-0.04 0.04,-0.1 0,-0.04 -0.04,-0.08 -0.06,-0.08 -0.02,0 -0.04,0.04 -0.04,0.08 0.02,0.06 0.04,0.1 0.06,0.1 z M 4.08,17.8 4.2,17.74 c 0.02,-0.02 0.04,-0.06 0.04,-0.1 l -0.02,-0.2 c 0,-0.04 0.02,-0.08 0.04,-0.08 l 0.08,0.04 c 0.04,0 0.04,-0.02 0.04,-0.04 0,-0.02 0,-0.06 -0.04,-0.08 0,-0.02 -0.02,-0.02 -0.02,-0.02 -0.1,0.04 -0.28,0.3 -0.3,0.44 0,0.06 0.02,0.1 0.06,0.1 z m 7.08,-0.4 c 0.02,0 0.04,0 0.04,-0.04 v -0.02 c 0,-0.04 -0.02,-0.04 -0.04,-0.06 l -0.04,-0.02 c -0.02,0.02 -0.04,0.04 -0.04,0.06 0.02,0.06 0.04,0.08 0.08,0.08 z m -7.12,0 0.02,-0.04 -0.04,-0.04 V 17.3 C 4,17.3 4,17.3 4,17.32 v 0.04 L 4.02,17.4 Z M 3.7,17.46 3.72,17.42 3.7,17.38 c 0,-0.02 -0.02,-0.02 -0.02,-0.02 -0.02,0 -0.02,0.02 -0.02,0.06 l 0.02,0.04 z m 7.4,0.08 0.04,-0.02 -0.02,-0.02 c 0,-0.02 -0.02,-0.02 -0.04,-0.02 0,0 -0.02,0 -0.02,0.02 v 0.02 z m -6.92,0.1 H 4.16 L 4.14,17.6 c 0,-0.04 0,-0.06 0.02,-0.06 v 0.02 L 4.2,17.6 Z m 6.02,0.06 c 0,-0.02 0,-0.08 -0.02,-0.12 0,-0.02 0,-0.02 -0.02,-0.02 v 0.06 l 0.02,0.08 z M 3.84,17.88 3.86,17.84 3.84,17.76 C 3.82,17.7 3.78,17.66 3.76,17.66 H 3.74 c -0.02,0 -0.04,0.02 -0.06,0.06 l -0.02,0.04 0.06,-0.02 c 0.04,0 0.04,0.02 0.06,0.06 0,0.04 0.02,0.08 0.06,0.08 z M 1.96,18 C 2.02,18 2.04,17.96 2.04,17.9 2.04,17.86 2.02,17.84 2,17.84 v 0.02 L 1.92,17.96 1.9,17.98 C 1.9,18 1.92,18 1.96,18 Z m 1.62,0 0.1,-0.06 C 3.7,17.92 3.72,17.9 3.72,17.88 L 3.6,17.86 c -0.08,0 -0.12,0.02 -0.12,0.04 v 0.02 C 3.52,17.98 3.54,18 3.58,18 Z m 0.22,0.12 c 0.02,0 0.08,-0.02 0.12,-0.08 L 3.96,17.96 3.92,17.94 3.88,17.96 c -0.06,0 -0.12,0.06 -0.12,0.1 v 0.02 c 0,0.04 0.02,0.04 0.04,0.04 z M 3.12,18 3.16,17.98 V 17.96 H 3.08 v 0.02 z m 1.02,0.3 c -0.04,0 -0.06,0 -0.06,-0.02 L 4.1,18.26 h 0.1 v 0.02 c 0,0 -0.02,0.02 -0.06,0.02 z m 6.48,0.08 c 0.06,-0.02 0.1,-0.02 0.1,-0.04 L 10.68,18.3 10.62,18.28 c -0.08,0 -0.16,0.02 -0.16,0.08 0.02,0.02 0.04,0.02 0.1,0.02 z m -6.94,0.16 c 0.06,0 0.14,-0.02 0.16,-0.06 0,-0.04 0.06,-0.04 0.1,-0.04 l 0.04,0.02 C 4,18.46 4.02,18.44 4.02,18.42 4,18.36 3.92,18.32 3.86,18.32 H 3.84 c -0.02,0 -0.04,0 -0.04,0.02 -0.02,0.04 -0.08,0.06 -0.14,0.06 -0.06,0 -0.12,0.02 -0.12,0.06 v 0.02 c 0,0.04 0.06,0.06 0.14,0.06 z m 6.66,0.66 0.04,-0.02 v -0.02 l -0.04,-0.02 -0.04,0.02 v 0.02 z m -7.1,0.18 c 0.02,0 0.06,-0.04 0.1,-0.1 l 0.02,-0.06 c 0,-0.02 0,-0.02 -0.04,-0.02 -0.06,0 -0.1,0.04 -0.12,0.08 0,0.06 0,0.1 0.04,0.1 z"
         id="path908"
         style="fill:url(#linearGradient930)" />
    </g>
  </g>
</svg>
