<?xml version="1.0" encoding="UTF-8" standalone="no"?>
<!-- Created with Inkscape (http://www.inkscape.org/) -->

<svg
   width="512"
   height="512"
   viewBox="0 0 135.46666 135.46667"
   version="1.1"
   id="svg5"
   inkscape:export-filename="/home/adrian/Documents/Projects/word-builder/logo.png"
   inkscape:export-xdpi="96.000008"
   inkscape:export-ydpi="96.000008"
   inkscape:version="1.1.1 (3bf5ae0d25, 2021-09-20)"
   sodipodi:docname="icon.svg"
   xmlns:inkscape="http://www.inkscape.org/namespaces/inkscape"
   xmlns:sodipodi="http://sodipodi.sourceforge.net/DTD/sodipodi-0.dtd"
   xmlns="http://www.w3.org/2000/svg"
   xmlns:svg="http://www.w3.org/2000/svg">
  <sodipodi:namedview
     id="namedview7"
     pagecolor="#ffffff"
     bordercolor="#666666"
     borderopacity="1.0"
     inkscape:pageshadow="2"
     inkscape:pageopacity="0.0"
     inkscape:pagecheckerboard="0"
     inkscape:document-units="mm"
     showgrid="false"
     units="px"
     width="512px"
     inkscape:zoom="0.41053452"
     inkscape:cx="607.74427"
     inkscape:cy="249.6745"
     inkscape:window-width="1920"
     inkscape:window-height="966"
     inkscape:window-x="0"
     inkscape:window-y="27"
     inkscape:window-maximized="1"
     inkscape:current-layer="layer1" />
  <defs
     id="defs2">
    <rect
       x="-56.349014"
       y="-195.93945"
       width="268.92228"
       height="223.04737"
       id="rect4299" />
    <rect
       x="-56.349014"
       y="-195.93945"
       width="268.92228"
       height="223.04737"
       id="rect17695" />
  </defs>
  <g
     inkscape:label="Layer 1"
     inkscape:groupmode="layer"
     id="layer1">
    <rect
       style="fill:#111111;stroke:#48466d;stroke-width:0.993142;fill-opacity:1"
       id="rect2408"
       width="134.47353"
       height="134.47353"
       x="0.49657118"
       y="0.49657118" />
    <g
       id="g20643"
       transform="matrix(1.8863883,0,0,1.8863883,-325.59048,150.15872)"
       style="fill:#0ea47a;fill-opacity:1">
      <path
         id="path19335"
         style="fill:#0ea47a;stroke-width:0.999999;fill-opacity:1"
         d="m 782.97852,-72.220703 c -10.58642,-0.0024 -20.05154,0.971048 -20.35547,3.126953 -0.85883,6.09162 4.98407,11.279267 14.70898,13.060547 18.0672,3.309298 35.70907,-2.636921 34.95313,-11.78125 -0.23048,-2.787893 -15.69553,-4.40321 -29.30664,-4.40625 z m 5.11718,5.140625 c 20.90729,0 23.0372,0.736675 13.57618,4.691406 -7.1966,3.008198 -25.46434,2.330346 -30.76172,-1.140625 -4.78247,-3.133587 -2.76246,-3.550781 17.18554,-3.550781 z"
         transform="scale(0.26458333)" />
      <path
         id="path19343"
         style="fill:#0ea47a;stroke-width:0.999999;fill-opacity:1"
         d="m 783.50195,-275.18359 c -54.9812,-0.13037 -81.80805,58.92935 -49.36718,121.79687 10.87903,21.08257 14.75629,30.5747 15.74804,38.55664 0.32463,2.6125 0.83908,6.74734 1.14258,9.1875 0.37557,3.0201 1.09399,4.5783 2.25,4.88281 2.5988,0.68458 63.53854,0.761049 66.92383,0.084 2.91594,-0.58319 2.99752,-0.76891 4.06055,-9.25 1.56657,-12.49866 3.34415,-17.21703 15.46093,-41.0332 31.58124,-62.07435 16.41553,-110.49146 -38.28515,-122.22266 -6.25586,-1.34164 -12.24589,-1.98847 -17.9336,-2.00195 z m 3.74488,5.67265 c 48.05008,1.77309 82.61686,44.16199 50.60937,111.16045 -8.1125,16.98118 -13.70793,26.80619 -15.9812,35.02041 -2.83071,10.22851 -66.1741,9.76877 -68.89062,-0.5 -0.99848,-3.77443 -4.18206,-16.34543 -9.99788,-27.73206 -24.04418,-47.0755 -21.38842,-74.96731 1.02247,-100.11181 15.39708,-17.27512 23.65664,-18.55955 43.23786,-17.83699 z m 14.69848,157.57539 c 17.48631,-6e-5 17.85015,0.72258 16.97461,4.21094 -1.32015,5.25992 -64.02879,3.80451 -63.2832,-1.46875 0.33751,-2.38691 0.3362,-2.38567 31.27148,-2.65039 6.05413,-0.0518 11.00181,-0.0918 15.03711,-0.0918 z"
         transform="scale(0.26458333)"
         sodipodi:nodetypes="sssssssssssssssssssssss" />
      <path
         style="fill:#0ea47a;stroke-width:0.264583;fill-opacity:1"
         d="m 215.33733,-52.87194 c -1.48906,-1.013301 -0.97578,-4.171395 0.64744,-3.983525 1.06916,0.123743 1.55149,1.771913 0.90527,3.09335 -0.46751,0.95599 -1.004,1.263563 -1.55271,0.890175 z"
         id="path19353" />
      <path
         style="fill:#0ea47a;stroke-width:0.264583;fill-opacity:1"
         d="m 199.97261,-53.366825 c -0.87152,-1.330108 -0.35124,-3.53968 0.83348,-3.53968 1.20504,0 1.87639,1.891257 1.15671,3.258539 -0.61589,1.170094 -1.34064,1.272474 -1.99019,0.281141 z"
         id="path19351" />
      <path
         style="fill:#0ea47a;stroke-width:0.264583;fill-opacity:1"
         d="m 206.02857,-43.958174 c -4.12317,-0.727091 -7.97308,-5.144956 -5.92299,-6.796768 0.61121,-0.492469 15.88802,-0.473438 16.56371,0.02064 1.60417,1.172996 -1.02096,5.043898 -4.23733,6.24817 -1.65378,0.619213 -4.53759,0.856983 -6.40339,0.527963 z"
         id="path19349" />
      <path
         style="fill:#0ea47a;stroke-width:0.264583;fill-opacity:1"
         d="m 200.42453,-23.954289 c -0.71204,-0.857957 -0.0384,-0.937631 7.92788,-0.937631 7.96625,0 8.63992,0.07967 7.92788,0.937631 -0.26639,0.320979 -1.5896,0.385286 -7.92788,0.385286 -6.33828,0 -7.66149,-0.06431 -7.92788,-0.385286 z"
         id="path19341" />
      <path
         style="fill:#0ea47a;stroke-width:0.264583;fill-opacity:1"
         d="m 200.29738,-20.899294 c -0.62465,-1.010703 -0.0924,-1.082209 8.05503,-1.082209 6.95992,0 7.89975,0.04917 8.04235,0.420751 0.32295,0.841603 -0.21695,0.902166 -8.04235,0.902166 -4.46261,0 -7.97106,-0.104841 -8.05503,-0.240708 z"
         id="path19339" />
    </g>
  </g>
</svg>
