<?xml version="1.0" standalone="no"?>
<!DOCTYPE svg PUBLIC "-//W3C//DTD SVG 20010904//EN"
 "http://www.w3.org/TR/2001/REC-SVG-20010904/DTD/svg10.dtd">
<svg version="1.0" xmlns="http://www.w3.org/2000/svg"
 width="512.000000pt" height="512.000000pt" viewBox="0 0 512.000000 512.000000"
 preserveAspectRatio="xMidYMid meet">
<metadata>
Created by potrace 1.14, written by Peter Selinger 2001-2017
</metadata>
<g transform="translate(0.000000,512.000000) scale(0.100000,-0.100000)"
fill="#000000" stroke="none">
<path d="M4195 4589 c-16 -31 -15 -46 3 -35 14 9 33 66 22 66 -5 0 -17 -14
-25 -31z"/>
<path d="M4234 4585 c-14 -19 -32 -52 -39 -72 -11 -33 -17 -38 -49 -41 -35 -3
-35 -4 -47 -63 -8 -42 -15 -57 -22 -50 -15 15 -27 14 -27 -2 0 -7 -25 -55 -56
-107 -32 -52 -68 -117 -81 -145 -13 -27 -28 -57 -33 -65 -23 -37 -70 -151 -70
-169 0 -11 -13 -42 -30 -68 -16 -26 -30 -55 -30 -64 0 -9 -12 -30 -27 -46 -16
-17 -34 -47 -42 -69 -7 -21 -26 -64 -41 -94 -15 -30 -37 -85 -49 -121 -12 -36
-28 -75 -36 -85 -8 -10 -15 -29 -15 -41 0 -13 -8 -24 -21 -28 -11 -4 -18 -13
-15 -20 2 -7 -11 -43 -31 -80 -19 -36 -33 -74 -31 -83 3 -10 0 -23 -6 -29 -27
-30 -36 -43 -36 -58 0 -8 -4 -15 -9 -15 -5 0 -13 -18 -19 -39 -7 -31 -6 -45 5
-60 13 -20 12 -21 -12 -21 -14 0 -24 -4 -21 -9 3 -5 -4 -21 -15 -35 -26 -33
-62 -124 -54 -137 4 -5 -1 -12 -9 -15 -9 -3 -16 -17 -16 -29 0 -13 -4 -27 -10
-30 -5 -3 -10 -14 -10 -24 0 -10 -9 -25 -20 -32 -20 -14 -28 -39 -29 -91 -1
-15 -8 -33 -16 -42 -8 -8 -15 -19 -15 -24 0 -5 -7 -22 -15 -38 -8 -16 -20 -52
-27 -80 -7 -28 -21 -58 -31 -68 -9 -10 -20 -29 -23 -44 -3 -15 -25 -72 -49
-127 -23 -55 -59 -138 -79 -185 -21 -47 -41 -92 -47 -100 -5 -8 -12 -22 -15
-30 -3 -8 -10 -23 -15 -32 -5 -10 -9 -24 -9 -31 0 -8 -9 -24 -20 -37 -11 -13
-20 -34 -20 -47 0 -33 -38 -110 -65 -131 -31 -24 -45 -55 -45 -96 0 -28 -7
-40 -30 -57 -16 -12 -27 -26 -24 -31 3 -4 -6 -8 -20 -8 -28 0 -33 9 -15 27 8
8 8 17 -1 32 -14 28 -20 121 -9 142 6 11 4 21 -4 28 -9 7 -13 39 -12 105 0 78
4 98 19 115 17 19 15 26 -6 22 -7 -1 -12 29 -9 51 0 3 3 46 6 95 4 80 8 123
20 223 2 19 7 64 10 100 4 36 11 85 17 110 5 25 12 63 14 85 12 103 57 306 65
294 3 -6 6 2 6 18 -1 28 11 148 18 181 2 9 8 38 14 65 6 26 14 64 17 85 3 20
10 39 15 40 5 2 9 14 9 26 0 12 5 27 12 34 9 9 9 12 -1 12 -7 0 -10 7 -7 18 3
9 10 36 16 60 6 23 17 42 24 42 11 0 13 10 9 40 -4 28 0 48 14 72 11 19 23 63
26 99 4 36 16 96 28 134 53 183 71 248 75 276 2 14 11 48 20 74 9 29 14 67 12
94 -3 25 -2 60 2 76 7 39 -11 73 -76 139 -107 109 -197 166 -262 166 -32 0
-44 -4 -49 -17 -9 -27 -47 -119 -86 -208 -19 -44 -37 -87 -41 -95 -3 -8 -37
-75 -75 -147 -51 -100 -64 -133 -52 -133 13 0 12 -4 -5 -18 -25 -22 -64 -84
-88 -142 -17 -40 -183 -389 -207 -432 -18 -34 -27 -53 -39 -83 -6 -16 -18 -43
-26 -58 -8 -16 -14 -42 -14 -58 0 -18 -5 -29 -14 -29 -7 0 -32 -41 -56 -91
-45 -97 -82 -199 -74 -199 3 0 -7 -15 -22 -32 -30 -37 -74 -124 -74 -150 0 -9
-6 -23 -12 -30 -16 -17 -95 -179 -137 -283 -36 -88 -115 -258 -162 -347 -16
-31 -29 -63 -29 -70 0 -7 -11 -25 -24 -41 -13 -15 -26 -44 -29 -65 -4 -21 -20
-51 -37 -71 -17 -18 -29 -40 -26 -47 3 -7 1 -16 -4 -19 -6 -4 -22 -31 -36 -61
-23 -49 -31 -71 -33 -96 -1 -5 -8 -8 -16 -8 -8 0 -15 -6 -16 -12 -3 -48 -37
-120 -68 -146 -16 -13 -18 -16 -20 -54 -1 -20 -2 -20 -20 -4 -18 17 -20 17
-30 -1 -10 -16 -10 -16 -11 5 0 12 6 25 13 27 8 4 12 29 12 78 -1 39 2 92 6
117 4 25 10 68 13 95 13 104 24 147 36 140 4 -3 4 12 -1 32 -5 25 -4 42 3 51
7 7 13 48 15 90 2 42 10 106 17 142 8 36 17 83 20 105 5 31 49 258 82 417 2
13 7 39 10 58 17 106 80 363 97 395 5 11 12 33 13 50 8 72 17 129 45 270 17
83 33 161 35 175 86 435 88 445 88 558 -1 70 -2 74 -36 110 -20 20 -43 51 -51
68 -9 18 -30 37 -49 45 -18 7 -50 29 -71 49 -52 47 -116 90 -137 90 -27 0 -40
-39 -44 -145 -3 -55 -8 -116 -11 -135 -3 -19 -15 -84 -25 -145 -10 -60 -21
-124 -24 -141 -3 -17 -13 -66 -22 -110 -9 -43 -20 -100 -24 -126 -5 -27 -12
-53 -15 -59 -4 -5 -9 -42 -10 -81 -2 -40 -10 -80 -19 -93 -8 -12 -15 -31 -14
-41 0 -11 -2 -32 -5 -49 -3 -16 -11 -59 -16 -95 -6 -36 -13 -76 -16 -90 -3
-14 -8 -41 -11 -60 -4 -19 -15 -71 -25 -115 -10 -44 -21 -93 -23 -110 -3 -16
-8 -41 -11 -55 -2 -13 -7 -42 -10 -65 -4 -22 -15 -85 -27 -140 -11 -55 -21
-109 -23 -120 -5 -31 -21 -110 -43 -215 -11 -52 -23 -122 -27 -155 -4 -32 -8
-62 -10 -65 -2 -4 -7 -22 -10 -41 -3 -19 -8 -47 -11 -62 -3 -16 -7 -54 -9 -85
-2 -31 -9 -93 -15 -137 -6 -44 -13 -114 -16 -155 -6 -99 -11 -131 -24 -166
-12 -31 -15 -244 -5 -329 8 -63 23 -122 42 -158 19 -38 199 -212 238 -231 60
-29 141 -57 181 -63 72 -10 156 51 205 147 13 25 29 51 36 58 7 7 13 19 13 25
0 7 18 39 40 72 41 61 47 79 31 89 -5 3 -21 -14 -35 -38 -15 -25 -32 -48 -38
-52 -7 -4 -1 10 12 31 21 35 22 39 7 50 -21 15 -22 35 -3 35 14 0 32 36 28 52
-1 5 4 8 12 8 9 0 12 -8 8 -25 -2 -15 0 -25 7 -25 22 0 51 20 51 35 0 9 9 22
19 31 14 12 17 23 12 43 -11 39 -3 61 23 61 27 0 60 52 54 85 -4 19 0 25 16
27 12 2 21 8 21 13 0 6 5 17 10 25 15 23 37 82 38 105 1 11 7 23 12 27 6 4 -2
8 -17 8 -15 0 -30 -6 -34 -12 -10 -16 -21 27 -16 62 7 50 69 99 87 69 4 -5 2
-9 -3 -9 -11 0 -35 -60 -27 -68 11 -11 36 10 55 48 22 43 21 52 -5 56 -8 1
-28 8 -45 15 -24 11 -29 19 -26 42 1 15 8 33 14 39 7 7 12 22 12 35 0 13 5 23
10 23 6 0 10 6 10 13 0 19 39 97 49 97 4 0 15 -8 25 -19 13 -14 15 -28 10 -61
-7 -44 -25 -60 -48 -40 -12 9 -17 7 -25 -9 -18 -32 -14 -43 9 -31 11 6 20 7
21 3 3 -29 9 -47 20 -54 18 -11 29 -2 29 26 0 12 6 25 13 28 8 3 22 27 32 54
10 26 33 76 52 111 18 35 33 72 33 82 0 10 5 22 11 25 6 4 8 13 5 20 -3 8 4
25 15 39 22 28 19 46 -9 41 -9 -2 -21 -4 -26 -4 -5 -1 -3 -8 4 -16 10 -12 7
-15 -14 -21 -13 -3 -29 -3 -35 0 -5 4 -11 -1 -13 -10 -3 -14 -6 -13 -22 5 -18
20 -18 21 5 30 15 5 31 5 43 -1 11 -6 16 -6 13 0 -4 5 0 18 8 28 28 38 6 48
-30 14 -13 -12 -25 -16 -34 -11 -11 7 -9 12 8 27 11 10 21 23 21 30 0 21 45
33 71 20 24 -13 26 -18 14 -49 -10 -23 22 -12 35 14 8 14 4 22 -23 40 -56 38
-69 69 -30 69 22 0 65 49 59 66 -3 8 -1 14 5 14 6 0 13 -9 16 -19 7 -26 27
-33 49 -16 15 11 16 17 7 39 -11 23 -9 27 15 45 15 10 38 41 51 68 13 26 28
55 33 63 16 30 57 115 63 134 13 43 16 2 6 -81 -12 -94 -17 -138 -26 -273 -4
-46 -8 -98 -10 -115 -3 -16 -7 -66 -10 -110 -3 -44 -8 -96 -11 -115 -7 -41 -7
-32 0 -145 18 -276 18 -276 46 -477 22 -156 68 -237 221 -391 134 -134 195
-171 289 -173 108 -2 159 51 271 286 22 47 60 126 84 175 41 84 75 173 75 195
0 16 -22 11 -36 -7 -11 -16 -14 -16 -28 -3 -14 13 -12 18 20 39 30 21 37 22
44 10 6 -9 12 -10 19 -4 23 24 116 284 105 294 -2 3 -17 -7 -32 -22 -22 -23
-24 -29 -13 -37 12 -7 12 -11 2 -24 -7 -9 -17 -14 -21 -11 -5 3 -12 0 -16 -6
-4 -7 -11 -1 -19 17 -10 25 -9 30 8 39 11 5 25 23 30 39 20 59 77 101 77 55 0
-34 16 -13 40 53 32 87 66 172 99 243 42 91 94 236 86 243 -3 3 -8 -3 -11 -15
-8 -28 -43 -43 -74 -30 l-25 10 33 9 c36 10 40 16 46 66 3 28 0 35 -21 43 -13
5 -21 14 -18 19 4 6 10 8 15 5 4 -3 10 0 12 6 2 7 15 13 28 14 39 3 36 25 -3
23 -39 -1 -53 5 -67 32 -10 18 -8 19 21 13 28 -5 31 -4 26 11 -6 15 12 77 35
120 6 12 6 22 0 28 -14 14 -50 0 -54 -20 -3 -14 -5 -14 -9 -2 -3 8 0 30 8 47
13 33 13 33 33 13 34 -34 49 -17 85 95 18 54 65 155 72 155 2 0 2 -8 -1 -17
-3 -10 -2 -31 2 -48 8 -29 9 -29 20 -8 9 17 9 22 -3 27 -27 10 22 85 57 86 10
0 21 14 28 34 9 27 15 33 31 29 16 -4 20 -12 16 -29 -2 -13 0 -24 4 -24 5 0 9
6 9 14 0 8 6 16 13 19 10 4 10 7 0 18 -18 18 -16 27 8 34 21 7 74 104 62 115
-3 3 -8 0 -10 -6 -2 -6 -10 -19 -17 -30 -13 -17 -15 -17 -30 -1 -25 24 -55 21
-66 -7 -5 -13 -14 -27 -19 -31 -6 -3 -11 -17 -11 -30 0 -13 -5 -27 -12 -31 -6
-4 -8 -3 -5 3 4 6 0 18 -7 29 -13 17 -17 17 -40 4 -45 -24 -51 1 -11 46 34 37
35 38 29 12 -9 -43 18 -35 49 13 15 22 27 46 27 53 0 7 5 17 12 24 6 6 13 26
14 43 2 17 9 36 18 42 8 7 17 25 20 40 3 16 17 44 32 64 33 43 24 53 -24 28
-31 -17 -37 -25 -38 -54 0 -20 -6 -37 -13 -39 -11 -4 -12 4 -6 34 9 49 23 76
36 69 5 -4 9 9 9 29 0 20 5 36 10 36 6 0 10 7 10 16 0 9 9 18 19 21 11 3 17
11 14 18 -2 8 0 22 7 32 8 14 9 3 4 -46 -7 -72 0 -73 36 -4 14 26 31 54 38 61
6 7 12 21 12 31 0 10 9 26 20 36 25 23 25 35 1 35 -21 0 -61 -44 -61 -66 0 -8
-7 -14 -15 -14 -11 0 -15 11 -15 41 0 22 -4 38 -9 35 -5 -3 -11 1 -15 9 -3 8
-1 17 4 20 6 4 10 19 10 35 0 16 6 33 13 37 22 15 35 47 26 71 -7 18 -4 25 15
33 21 10 56 70 56 97 0 5 5 12 12 14 6 2 9 12 5 21 -5 12 -14 16 -32 13 -44
-8 -23 17 31 37 49 18 78 43 68 58 -3 5 0 9 5 9 6 0 11 9 11 19 0 11 5 23 10
26 6 3 10 14 10 24 0 10 9 28 20 41 11 13 20 27 20 32 0 6 -9 12 -20 15 -20 5
-29 43 -10 43 14 0 12 28 -2 32 -8 3 -3 10 12 18 14 7 35 25 47 39 18 21 21
33 16 65 -6 37 -5 39 16 33 21 -5 21 -4 9 11 -15 18 -13 52 3 52 5 0 9 -4 9
-10 0 -5 5 -10 10 -10 7 0 7 6 0 20 -16 29 -35 25 -66 -15z m-84 -301 c0 -8
-4 -12 -10 -9 -5 3 -10 10 -10 16 0 5 5 9 10 9 6 0 10 -7 10 -16z m-61 -168
c-9 -8 -10 -7 -5 7 3 10 7 24 7 30 1 7 3 4 6 -7 3 -10 -1 -23 -8 -30z m-62
-102 c-3 -3 -12 -4 -19 -1 -8 3 -5 6 6 6 11 1 17 -2 13 -5z m-36 -71 c-12 -20
-14 -14 -5 12 4 9 9 14 11 11 3 -2 0 -13 -6 -23z m-71 -144 c-7 -11 -14 -19
-16 -16 -7 7 7 37 17 37 6 0 5 -9 -1 -21z m-27 -99 c8 0 8 -3 -1 -9 -7 -4 -14
-18 -15 -29 -2 -26 -14 -29 -21 -4 -7 19 -1 56 11 75 5 8 9 5 11 -10 2 -13 9
-23 15 -23z m-1478 -60 c3 -5 2 -10 -4 -10 -5 0 -13 5 -16 10 -3 6 -2 10 4 10
5 0 13 -4 16 -10z m35 0 c0 -5 -4 -10 -10 -10 -5 0 -10 5 -10 10 0 6 5 10 10
10 6 0 10 -4 10 -10z m1390 -5 c0 -14 -32 -65 -40 -65 -6 0 -10 2 -10 4 0 2
-3 11 -6 19 -6 17 21 47 42 47 8 0 14 -2 14 -5z m30 -45 c-6 -12 -14 -19 -17
-16 -4 3 0 18 8 32 7 14 15 21 17 15 2 -5 -2 -20 -8 -31z m-90 -30 c0 -5 -5
-10 -11 -10 -5 0 -7 5 -4 10 3 6 8 10 11 10 2 0 4 -4 4 -10z m-16 -85 c-7 -19
-39 -37 -48 -28 -12 12 -6 23 14 23 11 0 20 5 20 10 0 6 4 10 10 10 5 0 7 -7
4 -15z m40 -20 c6 -17 2 -31 -26 -94 -11 -25 -22 -60 -25 -79 -4 -22 -13 -36
-25 -40 -10 -2 -18 -11 -18 -20 0 -12 3 -13 12 -4 18 18 38 14 38 -7 0 -25
-16 -36 -23 -17 -4 9 -14 12 -26 9 -12 -3 -28 0 -35 6 -13 11 -12 15 4 31 30
30 64 102 62 132 -2 17 5 32 18 41 12 8 22 24 23 36 2 24 12 28 21 6z m-1044
-29 c0 -3 -4 -8 -10 -11 -5 -3 -10 -1 -10 4 0 6 5 11 10 11 6 0 10 -2 10 -4z
m-405 -105 c3 -5 1 -12 -5 -16 -5 -3 -10 1 -10 9 0 18 6 21 15 7z m1440 -61
c-7 -23 -17 -20 -21 7 -4 23 6 37 18 25 6 -6 7 -20 3 -32z m-1475 9 c0 -5 -4
-8 -9 -4 -5 3 -11 -4 -13 -15 -4 -28 -22 -30 -26 -3 -2 14 3 23 15 26 30 8 33
7 33 -4z m1322 -62 c-4 -41 -17 -67 -33 -67 -4 0 -4 14 1 32 6 21 6 36 -1 44
-13 16 -6 29 18 31 16 1 18 -5 15 -40z m158 9 c0 -11 -19 -15 -25 -6 -3 5 1
10 9 10 9 0 16 -2 16 -4z m-1093 -48 c-3 -8 -6 -5 -6 6 -1 11 2 17 5 13 3 -3
4 -12 1 -19z m-368 -4 c3 -3 -7 -17 -22 -32 -21 -21 -27 -23 -27 -10 0 9 5 20
12 24 7 5 5 12 -8 22 -18 13 -17 14 11 7 16 -3 32 -9 34 -11z m1297 -61 c-10
-10 -19 5 -10 18 6 11 8 11 12 0 2 -7 1 -15 -2 -18z m-46 -2 c0 -6 -4 -13 -10
-16 -5 -3 -10 1 -10 9 0 9 5 16 10 16 6 0 10 -4 10 -9z m-1238 -23 c-7 -7 -12
-8 -12 -2 0 14 12 26 19 19 2 -3 -1 -11 -7 -17z m-85 -4 c-15 -8 -32 -12 -38
-8 -16 9 10 24 41 23 l25 0 -28 -15z m1573 -14 c0 -5 -7 -10 -16 -10 -8 0 -12
5 -9 10 3 6 10 10 16 10 5 0 9 -4 9 -10z m-1650 -26 c0 -8 -4 -12 -10 -9 -5 3
-10 10 -10 16 0 5 5 9 10 9 6 0 10 -7 10 -16z m1547 -6 c-3 -8 -6 -5 -6 6 -1
11 2 17 5 13 3 -3 4 -12 1 -19z m-1517 -13 c0 -8 -4 -15 -10 -15 -5 0 -10 7
-10 15 0 8 5 15 10 15 6 0 10 -7 10 -15z m119 -27 c-7 -17 -12 -44 -11 -59 2
-19 -4 -32 -18 -39 -24 -13 -27 -32 -4 -23 13 5 14 0 8 -33 -4 -21 -15 -52
-26 -69 -10 -16 -18 -39 -18 -50 0 -12 -5 -26 -12 -33 -15 -15 -48 -16 -48 -2
0 6 6 10 13 10 15 0 42 68 32 78 -4 4 -20 -8 -35 -26 -22 -26 -34 -33 -56 -30
-36 4 -39 32 -4 36 29 4 62 31 54 43 -3 5 -1 9 5 9 5 0 12 14 16 30 4 17 15
35 26 40 10 6 19 17 19 25 0 8 8 15 18 15 15 0 17 6 14 34 -2 21 3 44 13 60
23 35 31 25 14 -16z m1351 12 c-11 -39 2 -46 28 -15 12 14 27 25 34 25 17 0
-31 -48 -56 -56 -12 -4 -32 -17 -45 -31 -24 -23 -42 -26 -48 -7 -2 6 8 16 22
22 16 7 23 17 19 27 -4 9 0 15 9 15 8 0 18 11 21 25 4 14 10 25 15 25 6 0 6
-12 1 -30z m-175 -78 c1 -47 -4 -51 -29 -23 -11 12 -14 21 -7 26 6 3 11 15 11
26 0 12 5 19 13 16 7 -2 12 -21 12 -45z m70 -2 c3 -6 -1 -7 -9 -4 -18 7 -21
14 -7 14 6 0 13 -4 16 -10z m-15 -40 c0 -5 -4 -10 -10 -10 -5 0 -10 5 -10 10
0 6 5 10 10 10 6 0 10 -4 10 -10z m-1370 -15 c0 -8 -4 -15 -10 -15 -5 0 -7 7
-4 15 4 8 8 15 10 15 2 0 4 -7 4 -15z m462 -25 c-6 -11 -12 -31 -12 -44 0 -28
-10 -37 -46 -41 -15 -1 -24 3 -24 11 0 8 7 14 15 14 9 0 12 6 8 16 -4 10 1 17
15 20 12 4 22 17 26 37 5 24 9 28 18 19 10 -10 10 -17 0 -32z m945 8 c-3 -8
-6 -5 -6 6 -1 11 2 17 5 13 3 -3 4 -12 1 -19z m-1485 -20 c-7 -7 -12 -8 -12
-2 0 14 12 26 19 19 2 -3 -1 -11 -7 -17z m1417 -28 c0 -10 -2 -11 -6 -2 -2 6
-12 12 -20 12 -13 0 -13 3 -3 15 11 13 15 13 21 3 5 -7 8 -20 8 -28z m-82 -12
c-3 -8 -6 -5 -6 6 -1 11 2 17 5 13 3 -3 4 -12 1 -19z m128 12 c3 -5 2 -10 -4
-10 -5 0 -13 5 -16 10 -3 6 -2 10 4 10 5 0 13 -4 16 -10z m-1491 -35 c-7 -17
-42 -30 -52 -20 -4 4 -1 10 6 12 7 3 18 11 25 18 15 16 28 9 21 -10z m1484
-13 c2 -7 -3 -12 -12 -12 -9 0 -16 7 -16 16 0 17 22 14 28 -4z m-78 -33 c0 -6
-4 -7 -10 -4 -5 3 -10 11 -10 16 0 6 5 7 10 4 6 -3 10 -11 10 -16z m-2220 -45
c0 -14 -12 -19 -23 -8 -9 9 4 35 14 28 5 -3 9 -12 9 -20z m850 6 c0 -5 -2 -10
-4 -10 -3 0 -8 5 -11 10 -3 6 -1 10 4 10 6 0 11 -4 11 -10z m55 0 c3 -5 2 -10
-4 -10 -5 0 -13 5 -16 10 -3 6 -2 10 4 10 5 0 13 -4 16 -10z m-104 -20 c10 -6
19 -19 19 -29 0 -16 -3 -18 -23 -8 -12 6 -23 19 -23 29 0 21 1 21 27 8z m1361
-9 c-7 -4 -10 -15 -7 -23 4 -9 2 -19 -4 -23 -15 -9 -14 38 1 53 6 6 14 9 17 6
3 -3 0 -9 -7 -13z m-1436 -12 c4 -8 9 -7 16 2 8 11 9 11 6 1 -2 -8 -7 -13 -11
-13 -4 1 -14 1 -22 1 -8 0 -15 5 -15 10 0 13 17 13 26 -1z m-779 -15 c-3 -3
-12 -4 -19 -1 -8 3 -5 6 6 6 11 1 17 -2 13 -5z m980 0 c12 -3 23 -16 26 -30 2
-13 1 -21 -4 -18 -4 2 -16 -5 -27 -16 l-19 -21 -6 22 c-10 37 -32 16 -32 -32
0 -49 -28 -109 -50 -109 -8 0 -22 -11 -31 -25 -14 -21 -15 -30 -5 -52 12 -27
6 -63 -10 -63 -6 0 -8 4 -5 9 3 4 -3 24 -13 44 -10 20 -15 37 -10 39 4 2 16
26 27 53 10 28 24 49 30 48 11 -3 16 10 13 30 -1 5 13 35 31 68 32 58 42 64
85 53z m-943 -43 c8 -12 -20 -22 -39 -15 -19 8 -9 24 15 24 10 0 21 -4 24 -9z
m-64 -11 c0 -5 -4 -10 -10 -10 -5 0 -10 5 -10 10 0 6 5 10 10 10 6 0 10 -4 10
-10z m804 -11 c-3 -5 -10 -7 -15 -3 -5 3 -7 10 -3 15 3 5 10 7 15 3 5 -3 7
-10 3 -15z m61 -3 c17 -12 16 -14 -13 -18 -30 -4 -43 8 -25 25 9 10 17 9 38
-7z m508 -26 c-3 -10 -12 -25 -19 -31 -12 -10 -13 -8 -8 7 7 19 24 44 29 44 2
0 1 -9 -2 -20z m917 10 c0 -5 -2 -10 -4 -10 -3 0 -8 5 -11 10 -3 6 -1 10 4 10
6 0 11 -4 11 -10z m-1519 -37 c-10 -17 -10 -16 -11 3 0 23 13 41 18 25 2 -6
-1 -18 -7 -28z m1389 -43 c0 -5 -6 -10 -13 -10 -8 0 -22 -9 -32 -20 -23 -26
-29 -20 -14 14 8 17 20 26 36 26 12 0 23 -4 23 -10z m-1240 -91 c0 -11 -4 -17
-10 -14 -5 3 -10 13 -10 21 0 8 5 14 10 14 6 0 10 -9 10 -21z m1265 -18 c-3
-6 -11 -11 -17 -11 -6 0 -6 6 2 15 14 17 26 13 15 -4z m-1377 -48 c-2 -14 -8
-28 -14 -30 -7 -2 -9 8 -6 27 5 37 25 40 20 3z m1442 13 c0 -19 -40 -67 -51
-61 -14 9 -10 -7 6 -29 16 -22 20 -56 6 -56 -5 0 -11 14 -15 31 -5 26 -8 29
-21 19 -8 -6 -19 -9 -25 -5 -16 10 -12 55 4 55 8 0 18 9 21 20 7 22 25 27 26
8 0 -7 5 -3 11 10 12 24 38 30 38 8z m-159 -10 c-1 -16 -31 -15 -31 1 0 8 7
13 16 11 8 -2 15 -7 15 -12z m54 -16 c3 -5 2 -10 -4 -10 -5 0 -13 5 -16 10 -3
6 -2 10 4 10 5 0 13 -4 16 -10z m-2445 -9 c0 -6 -4 -13 -10 -16 -5 -3 -10 1
-10 9 0 9 5 16 10 16 6 0 10 -4 10 -9z m2360 -27 c0 -8 -5 -12 -10 -9 -6 4 -8
11 -5 16 9 14 15 11 15 -7z m-1270 -8 c0 -3 -4 -8 -10 -11 -5 -3 -10 -1 -10 4
0 6 5 11 10 11 6 0 10 -2 10 -4z m1350 -51 c7 -9 8 -15 2 -15 -5 0 -12 7 -16
15 -3 8 -4 15 -2 15 2 0 9 -7 16 -15z m155 -5 c3 -5 -1 -10 -9 -10 -9 0 -16 5
-16 10 0 6 4 10 9 10 6 0 13 -4 16 -10z m-2371 -25 c-4 -8 -10 -15 -15 -15 -4
0 -6 7 -3 15 4 8 10 15 15 15 4 0 6 -7 3 -15z m746 -15 c0 -5 -7 -10 -16 -10
-8 0 -12 5 -9 10 3 6 10 10 16 10 5 0 9 -4 9 -10z m1440 0 c0 -5 -4 -10 -10
-10 -5 0 -10 5 -10 10 0 6 5 10 10 10 6 0 10 -4 10 -10z m161 -53 c-10 -9 -11
-8 -5 6 3 10 9 15 12 12 3 -3 0 -11 -7 -18z m-174 -9 c-3 -8 -6 -5 -6 6 -1 11
2 17 5 13 3 -3 4 -12 1 -19z m-2202 -18 c3 -5 -1 -10 -9 -10 -9 0 -16 5 -16
10 0 6 4 10 9 10 6 0 13 -4 16 -10z m745 -5 c0 -8 -4 -15 -10 -15 -5 0 -10 7
-10 15 0 8 5 15 10 15 6 0 10 -7 10 -15z m1610 -5 c0 -5 -2 -10 -4 -10 -3 0
-8 5 -11 10 -3 6 -1 10 4 10 6 0 11 -4 11 -10z m-1690 -15 c-7 -8 -16 -12 -21
-9 -13 8 -1 24 18 24 13 0 13 -3 3 -15z m1530 5 c0 -5 -5 -10 -11 -10 -5 0 -7
5 -4 10 3 6 8 10 11 10 2 0 4 -4 4 -10z m68 -47 c17 -32 -9 -123 -34 -123 -7
0 -18 9 -23 19 -9 16 -8 18 10 14 17 -5 19 -2 13 21 -5 22 -3 25 11 20 17 -7
17 2 -2 54 -8 19 15 14 25 -5z m62 -29 c-9 -38 -35 -73 -46 -62 -9 9 4 42 27
72 11 14 22 26 24 26 1 0 -1 -16 -5 -36z m-125 6 c-10 -11 -22 -17 -28 -13 -6
4 -3 12 8 20 28 20 41 16 20 -7z m-1575 -30 c0 -5 -2 -10 -4 -10 -3 0 -8 5
-11 10 -3 6 -1 10 4 10 6 0 11 -4 11 -10z m119 -19 c9 -6 21 -5 32 2 23 14 37
1 22 -21 -7 -11 -23 -17 -47 -16 -42 2 -51 7 -43 29 7 17 16 19 36 6z m-145
-27 c4 -10 1 -14 -6 -12 -15 5 -23 28 -10 28 5 0 13 -7 16 -16z m1571 -13 c3
-5 1 -13 -5 -16 -15 -9 -43 3 -35 15 8 13 32 13 40 1z m-2200 -30 c-3 -6 -11
-8 -17 -5 -6 4 -5 9 3 15 16 10 23 4 14 -10z m599 -30 c-18 -30 -34 -40 -34
-22 0 12 41 63 47 57 3 -2 -3 -18 -13 -35z m206 15 c0 -17 -14 -29 -23 -20 -8
8 3 34 14 34 5 0 9 -6 9 -14z m1351 -19 c-10 -9 -11 -8 -5 6 3 10 9 15 12 12
3 -3 0 -11 -7 -18z m-1491 -7 c0 -5 -4 -10 -10 -10 -5 0 -10 5 -10 10 0 6 5
10 10 10 6 0 10 -4 10 -10z m1480 -27 c0 -12 -2 -12 -15 1 -8 8 -15 17 -15 20
0 3 7 3 15 0 8 -4 15 -13 15 -21z m140 -7 c0 -3 -4 -8 -10 -11 -5 -3 -10 -1
-10 4 0 6 5 11 10 11 6 0 10 -2 10 -4z m-110 -67 c0 -5 -4 -9 -10 -9 -5 0 -10
7 -10 16 0 8 5 12 10 9 6 -3 10 -10 10 -16z m-2217 -75 c-4 -10 -9 -12 -15 -6
-12 12 -1 35 12 27 5 -3 6 -13 3 -21z m523 -58 c3 -23 -20 -15 -24 8 -3 11 1
17 9 14 7 -2 13 -12 15 -22z m1567 -6 c-5 -19 -23 -39 -23 -25 0 9 20 45 24
45 2 0 2 -9 -1 -20z m67 -18 c0 -10 -22 -32 -32 -32 -5 0 -3 9 4 20 13 20 28
27 28 12z m-1680 -83 c0 -5 -4 -9 -10 -9 -5 0 -10 7 -10 16 0 8 5 12 10 9 6
-3 10 -10 10 -16z m117 -11 c-3 -8 -6 -5 -6 6 -1 11 2 17 5 13 3 -3 4 -12 1
-19z m1443 12 c0 -5 -4 -10 -9 -10 -6 0 -13 5 -16 10 -3 6 1 10 9 10 9 0 16
-4 16 -10z m35 -30 c-3 -5 -11 -10 -16 -10 -6 0 -7 5 -4 10 3 6 11 10 16 10 6
0 7 -4 4 -10z m-1541 -52 c-3 -5 -12 -4 -20 3 -7 6 -11 15 -8 21 3 5 12 4 20
-3 7 -6 11 -15 8 -21z m-144 -108 c0 -5 -5 -10 -11 -10 -5 0 -7 5 -4 10 3 6 8
10 11 10 2 0 4 -4 4 -10z m1612 -22 c-9 -9 -12 -7 -12 12 0 19 3 21 12 12 9
-9 9 -15 0 -24z m-1422 8 c0 -8 -8 -13 -17 -12 -14 1 -17 -6 -15 -36 3 -30 0
-37 -18 -43 -30 -9 -35 -1 -21 34 22 52 71 92 71 57z m1491 1 c-1 -12 -15 -9
-19 4 -3 6 1 10 8 8 6 -3 11 -8 11 -12z m-1608 -97 c3 -11 1 -20 -4 -20 -5 0
-9 7 -9 16 0 8 -4 12 -10 9 -11 -7 -14 8 -4 18 10 10 21 0 27 -23z m-395 -32
c-2 -6 -10 -14 -16 -16 -7 -2 -10 2 -6 12 7 18 28 22 22 4z m362 3 c0 -16 -28
-20 -40 -5 -10 12 -8 14 14 14 14 0 26 -4 26 -9z m45 -31 c-20 -22 -31 -20
-22 5 4 8 14 15 23 15 16 0 16 -2 -1 -20z m1490 -60 c4 -6 -5 -10 -19 -10 -14
0 -26 5 -26 10 0 6 9 10 19 10 11 0 23 -4 26 -10z m-1467 -20 c3 -8 1 -12 -3
-8 -4 4 -21 0 -37 -8 -30 -16 -58 -13 -58 6 0 5 9 10 19 10 11 0 23 5 26 11
10 15 48 7 53 -11z m-157 -203 c-16 -16 -26 0 -10 19 9 11 15 12 17 4 2 -6 -1
-17 -7 -23z"/>
<path d="M2260 2823 c0 -12 5 -25 10 -28 13 -8 13 15 0 35 -8 12 -10 11 -10
-7z"/>
<path d="M2175 2601 c-3 -5 -1 -12 5 -16 5 -3 10 1 10 9 0 18 -6 21 -15 7z"/>
<path d="M2110 2490 c0 -5 7 -10 15 -10 8 0 15 5 15 10 0 6 -7 10 -15 10 -8 0
-15 -4 -15 -10z"/>
<path d="M4415 4420 c-3 -5 -1 -10 4 -10 6 0 11 5 11 10 0 6 -2 10 -4 10 -3 0
-8 -4 -11 -10z"/>
<path d="M4370 4353 c-8 -16 -16 -31 -18 -35 -1 -4 3 -5 10 -3 15 6 41 65 29
65 -4 0 -14 -12 -21 -27z"/>
<path d="M4210 4360 c0 -5 5 -10 10 -10 6 0 10 5 10 10 0 6 -4 10 -10 10 -5 0
-10 -4 -10 -10z"/>
<path d="M4309 4268 c-1 -7 -1 -16 0 -20 0 -5 -3 -8 -9 -8 -5 0 -10 -7 -10
-15 0 -9 -12 -28 -26 -42 -22 -22 -24 -28 -11 -40 12 -12 18 -6 45 45 18 33
32 67 32 76 0 19 -19 22 -21 4z"/>
<path d="M4230 4240 c0 -5 5 -10 11 -10 5 0 7 5 4 10 -3 6 -8 10 -11 10 -2 0
-4 -4 -4 -10z"/>
<path d="M4420 4219 c0 -5 5 -7 10 -4 6 3 10 8 10 11 0 2 -4 4 -10 4 -5 0 -10
-5 -10 -11z"/>
<path d="M4235 4200 c3 -5 11 -10 16 -10 6 0 7 5 4 10 -3 6 -11 10 -16 10 -6
0 -7 -4 -4 -10z"/>
<path d="M4184 4159 c-16 -21 -25 -49 -15 -49 15 0 33 28 29 46 -2 14 -5 15
-14 3z"/>
<path d="M4381 4134 c0 -11 3 -14 6 -6 3 7 2 16 -1 19 -3 4 -6 -2 -5 -13z"/>
<path d="M4190 4090 c-12 -8 -10 -10 8 -10 13 0 20 4 17 10 -7 12 -6 12 -25 0z"/>
<path d="M4121 4033 c-73 -137 -71 -133 -35 -133 19 0 25 -4 22 -17 -2 -10
-10 -17 -16 -15 -7 1 -12 -3 -12 -8 0 -7 -6 -7 -19 -1 -16 9 -23 5 -45 -23
-33 -44 -61 -104 -52 -113 10 -10 77 69 71 85 -3 8 6 12 25 12 50 0 80 17 80
45 0 26 17 62 37 80 17 14 28 65 14 65 -6 0 -11 -4 -11 -9 0 -13 -25 -20 -40
-11 -11 7 -11 14 -2 34 13 29 -2 36 -17 9z"/>
<path d="M4192 3905 c-7 -14 -12 -29 -12 -33 1 -10 40 38 40 49 0 18 -17 8
-28 -16z"/>
<path d="M4250 3920 c0 -5 7 -10 15 -10 8 0 15 5 15 10 0 6 -7 10 -15 10 -8 0
-15 -4 -15 -10z"/>
<path d="M4290 3908 c0 -19 2 -20 10 -8 13 19 13 30 0 30 -5 0 -10 -10 -10
-22z"/>
<path d="M4227 3874 c-8 -8 1 -24 13 -24 4 0 10 7 14 15 5 15 -14 21 -27 9z"/>
<path d="M4170 3845 c-8 -9 -8 -15 -2 -15 12 0 26 19 19 26 -2 2 -10 -2 -17
-11z"/>
<path d="M4064 3782 c3 -6 2 -13 -4 -17 -18 -11 -11 -26 12 -23 30 4 34 24 7
38 -12 7 -19 8 -15 2z"/>
<path d="M4180 3705 c-6 -8 -10 -22 -8 -32 3 -13 7 -9 15 15 13 35 12 39 -7
17z"/>
<path d="M4097 3618 c-10 -8 -19 -26 -20 -42 -3 -39 -27 -47 -27 -9 l-1 28
-14 -25 c-12 -22 -11 -27 3 -43 13 -15 14 -20 3 -26 -8 -5 -14 -26 -15 -47 -1
-29 3 -39 17 -42 15 -3 17 1 11 22 -5 22 1 33 33 64 36 34 53 60 67 105 3 9 1
17 -3 17 -5 0 -15 2 -23 5 -7 3 -22 0 -31 -7z"/>
<path d="M3987 3484 c-8 -8 1 -24 14 -24 5 0 9 7 9 15 0 15 -12 20 -23 9z"/>
<path d="M3965 3448 c-4 -10 0 -27 9 -40 15 -21 16 -21 15 -3 0 11 -4 29 -9
40 -7 18 -9 18 -15 3z"/>
<path d="M3996 3324 c-4 -9 -4 -19 -1 -22 2 -3 7 3 11 12 4 9 4 19 1 22 -2 3
-7 -3 -11 -12z"/>
<path d="M3931 3246 c-7 -8 -16 -29 -21 -48 l-9 -33 20 24 c11 13 22 21 26 18
10 -11 33 14 33 34 0 23 -32 26 -49 5z"/>
<path d="M3856 3222 c-4 -7 -5 -16 -1 -21 3 -5 1 -12 -4 -16 -15 -9 -2 -32 20
-38 23 -6 24 13 5 58 -8 19 -15 25 -20 17z"/>
<path d="M3800 2966 c0 -9 5 -16 10 -16 6 0 10 4 10 9 0 6 -4 13 -10 16 -5 3
-10 -1 -10 -9z"/>
<path d="M3815 2911 c-3 -5 -1 -12 5 -16 5 -3 10 1 10 9 0 18 -6 21 -15 7z"/>
<path d="M3766 2871 c-14 -5 -16 -10 -8 -15 8 -5 11 -21 7 -44 l-5 -37 20 44
c22 47 17 63 -14 52z"/>
<path d="M3718 2764 c-4 -6 -7 -28 -6 -48 1 -30 -5 -42 -33 -65 -39 -34 -53
-30 -45 10 3 16 2 29 -3 29 -7 0 -21 -46 -21 -71 0 -4 12 -9 28 -11 42 -5 35
-39 -16 -82 -24 -20 -50 -36 -58 -36 -17 0 -19 -20 -1 -21 6 -1 23 0 36 1 18
1 22 -2 17 -14 -3 -9 -9 -23 -12 -31 -3 -8 -2 -15 3 -15 11 0 59 100 98 204
18 47 25 84 23 115 -2 25 -6 41 -10 35z"/>
<path d="M3570 2530 c-9 -16 -8 -20 5 -20 8 0 15 2 15 4 0 2 3 11 6 20 9 23
-13 20 -26 -4z"/>
<path d="M1970 2150 c-13 -8 -12 -10 4 -10 11 0 27 -7 36 -15 15 -14 18 -13
27 8 10 21 8 23 -21 25 -17 1 -38 -3 -46 -8z"/>
<path d="M1765 1747 c-21 -40 -18 -54 9 -34 12 9 17 23 14 42 l-3 29 -20 -37z"/>
</g>
</svg>
