<?xml version="1.0" standalone="no"?>
<!DOCTYPE svg PUBLIC "-//W3C//DTD SVG 20010904//EN"
 "http://www.w3.org/TR/2001/REC-SVG-20010904/DTD/svg10.dtd">
<svg version="1.0" xmlns="http://www.w3.org/2000/svg"
 width="512.000000pt" height="512.000000pt" viewBox="0 0 512.000000 512.000000"
 preserveAspectRatio="xMidYMid meet">
<metadata>
Created by potrace 1.14, written by Peter Selinger 2001-2017
</metadata>
<g transform="translate(0.000000,512.000000) scale(0.100000,-0.100000)"
fill="#000000" stroke="none">
<path d="M2387 4634 c-1 -1 -35 -5 -75 -8 -240 -22 -493 -141 -666 -312 -200
-198 -335 -502 -361 -814 -6 -76 -6 -247 0 -305 2 -22 7 -65 10 -95 14 -134
85 -393 152 -555 13 -33 73 -159 133 -280 181 -368 240 -512 256 -630 3 -27 7
-57 9 -65 1 -8 6 -44 10 -80 8 -83 22 -128 43 -139 23 -12 128 -14 737 -14
353 1 529 4 548 12 31 12 42 34 51 106 4 28 9 61 11 75 2 14 6 45 10 70 22
148 66 258 249 631 119 244 163 346 219 509 32 93 74 250 82 310 4 24 8 47 10
50 3 5 14 86 21 155 5 55 4 240 -1 295 -53 489 -346 837 -843 999 -75 25 -143
42 -262 66 -63 12 -333 28 -343 19z m313 -118 c13 -3 42 -8 64 -12 22 -3 43
-7 47 -9 3 -2 20 -7 38 -10 110 -19 323 -118 437 -203 230 -171 354 -376 430
-707 4 -16 8 -111 9 -210 6 -357 -65 -610 -308 -1100 -116 -235 -182 -380
-203 -445 -20 -64 -36 -86 -84 -110 -37 -19 -142 -47 -206 -55 -21 -3 -55 -8
-74 -10 -67 -10 -445 -13 -520 -4 -215 25 -309 46 -376 85 -48 27 -44 21 -91
178 -43 151 -91 271 -183 461 -91 190 -158 353 -198 480 -42 139 -54 185 -67
260 -3 17 -8 44 -11 60 -13 69 -13 303 1 382 43 259 155 468 375 697 170 177
275 240 465 280 29 6 426 -1 455 -8z m415 -2977 c48 -23 38 -70 -17 -88 -73
-23 -232 -35 -458 -34 -148 0 -385 9 -426 17 -10 2 -44 7 -75 10 -31 4 -67 9
-80 12 -13 3 -35 7 -48 10 -36 7 -61 23 -61 38 0 33 30 40 203 43 95 2 178 5
186 6 8 1 179 2 380 1 298 0 372 -3 396 -15z"/>
<path d="M1960 3478 c-41 -45 -51 -137 -21 -203 34 -76 84 -93 126 -43 35 42
47 73 47 128 1 107 -93 181 -152 118z"/>
<path d="M3032 3475 c-66 -56 -60 -211 10 -257 106 -69 191 193 87 266 -33 23
-63 20 -97 -9z"/>
<path d="M2118 3085 c-2 -1 -32 -5 -68 -8 -80 -7 -95 -12 -115 -44 -32 -49 2
-160 75 -240 47 -52 138 -122 198 -152 115 -57 156 -66 307 -66 150 0 212 6
288 30 185 56 371 248 371 382 0 59 -23 79 -99 88 -56 7 -950 16 -957 10z"/>
<path d="M2047 1210 c-68 -9 -83 -19 -68 -48 12 -23 33 -28 143 -32 160 -6
865 -3 921 4 82 11 112 46 60 68 -32 13 -956 20 -1056 8z"/>
<path d="M2559 1013 c-8 -1 -133 -4 -279 -6 -165 -2 -275 -8 -292 -15 -30 -12
-36 -33 -15 -50 20 -17 187 -23 604 -23 477 0 555 6 549 46 -5 37 -23 40 -249
43 -122 1 -240 3 -263 5 -22 1 -47 1 -55 0z"/>
<path d="M2233 797 c-40 -4 -89 -14 -110 -21 -33 -11 -38 -17 -41 -47 -9 -109
134 -213 326 -235 271 -31 508 28 586 148 23 35 29 77 15 94 -16 19 -82 37
-180 49 -30 3 -67 9 -84 12 -50 9 -435 9 -512 0z m673 -108 c15 -16 12 -19
-47 -47 -85 -40 -170 -55 -310 -53 -165 1 -297 30 -335 72 -39 44 -15 47 368
45 271 -1 309 -3 324 -17z"/>
</g>
</svg>
